<?xml version="1.0" encoding="UTF-8" standalone="no"?>
<!DOCTYPE svg PUBLIC "-//W3C//DTD SVG 1.1//EN"
 "http://www.w3.org/Graphics/SVG/1.1/DTD/svg11.dtd">
<!-- Generated by graphviz version 2.38.0 (20140413.2041)
 -->
<!-- Title: %3 Pages: 1 -->
<svg width="1639pt" height="675pt"
 viewBox="0.00 0.00 1639.15 675.26" xmlns="http://www.w3.org/2000/svg" xmlns:xlink="http://www.w3.org/1999/xlink">
<g id="graph0" class="graph" transform="scale(1 1) rotate(0) translate(4 671.259)">
<title>%3</title>
<polygon fill="white" stroke="none" points="-4,4 -4,-671.259 1635.15,-671.259 1635.15,4 -4,4"/>
<!-- AuthInfo -->
<g id="node1" class="node"><title>AuthInfo</title>
<ellipse fill="none" stroke="black" cx="719.447" cy="-455.189" rx="115.931" ry="101.233"/>
<text text-anchor="middle" x="719.447" y="-511.489" font-family="Times New Roman,serif" font-size="14.00">AuthInfo</text>
<text text-anchor="middle" x="719.447" y="-496.489" font-family="Times New Roman,serif" font-size="14.00">attempts: int</text>
<text text-anchor="middle" x="719.447" y="-481.489" font-family="Times New Roman,serif" font-size="14.00">auth_code: char</text>
<text text-anchor="middle" x="719.447" y="-466.489" font-family="Times New Roman,serif" font-size="14.00">is_approved: bool</text>
<text text-anchor="middle" x="719.447" y="-451.489" font-family="Times New Roman,serif" font-size="14.00">last_send_time: timestamp</text>
<text text-anchor="middle" x="719.447" y="-436.489" font-family="Times New Roman,serif" font-size="14.00">password: char</text>
<text text-anchor="middle" x="719.447" y="-421.489" font-family="Times New Roman,serif" font-size="14.00">permissions: int</text>
<text text-anchor="middle" x="719.447" y="-406.489" font-family="Times New Roman,serif" font-size="14.00">phone_no: char</text>
<text text-anchor="middle" x="719.447" y="-391.489" font-family="Times New Roman,serif" font-size="14.00">session_id: char</text>
</g>
<!-- Person -->
<g id="node14" class="node"><title>Person</title>
<ellipse fill="none" stroke="black" cx="616.447" cy="-248.777" rx="89.191" ry="69.0935"/>
<text text-anchor="middle" x="616.447" y="-282.577" font-family="Times New Roman,serif" font-size="14.00">Person</text>
<text text-anchor="middle" x="616.447" y="-267.577" font-family="Times New Roman,serif" font-size="14.00">birth_date: datetime</text>
<text text-anchor="middle" x="616.447" y="-252.577" font-family="Times New Roman,serif" font-size="14.00">first_name: char</text>
<text text-anchor="middle" x="616.447" y="-237.577" font-family="Times New Roman,serif" font-size="14.00">middle_name: char</text>
<text text-anchor="middle" x="616.447" y="-222.577" font-family="Times New Roman,serif" font-size="14.00">phone_no: char</text>
<text text-anchor="middle" x="616.447" y="-207.577" font-family="Times New Roman,serif" font-size="14.00">surname: char</text>
</g>
<!-- AuthInfo&#45;&gt;Person -->
<g id="edge1" class="edge"><title>AuthInfo&#45;&gt;Person</title>
<path fill="none" stroke="black" d="M673.22,-362.447C666.506,-349.124 659.672,-335.561 653.18,-322.676"/>
<polygon fill="black" stroke="black" points="656.145,-320.783 648.52,-313.428 649.894,-323.933 656.145,-320.783"/>
</g>
<!-- Department -->
<g id="node2" class="node"><title>Department</title>
<ellipse fill="none" stroke="black" cx="815.447" cy="-116.61" rx="57.0522" ry="26.7407"/>
<text text-anchor="middle" x="815.447" y="-120.41" font-family="Times New Roman,serif" font-size="14.00">Department</text>
<text text-anchor="middle" x="815.447" y="-105.41" font-family="Times New Roman,serif" font-size="14.00">name: char</text>
</g>
<!-- Organization -->
<g id="node13" class="node"><title>Organization</title>
<ellipse fill="none" stroke="black" cx="815.447" cy="-26.8701" rx="61.5366" ry="26.7407"/>
<text text-anchor="middle" x="815.447" y="-30.6701" font-family="Times New Roman,serif" font-size="14.00">Organization</text>
<text text-anchor="middle" x="815.447" y="-15.6701" font-family="Times New Roman,serif" font-size="14.00">name: char</text>
</g>
<!-- Department&#45;&gt;Organization -->
<g id="edge2" class="edge"><title>Department&#45;&gt;Organization</title>
<path fill="none" stroke="black" d="M815.447,-89.2852C815.447,-81.3185 815.447,-72.4275 815.447,-63.9391"/>
<polygon fill="black" stroke="black" points="818.947,-63.874 815.447,-53.874 811.947,-63.8741 818.947,-63.874"/>
</g>
<!-- Group -->
<g id="node3" class="node"><title>Group</title>
<ellipse fill="none" stroke="black" cx="1207.45" cy="-248.777" rx="54.3945" ry="26.7407"/>
<text text-anchor="middle" x="1207.45" y="-252.577" font-family="Times New Roman,serif" font-size="14.00">Group</text>
<text text-anchor="middle" x="1207.45" y="-237.577" font-family="Times New Roman,serif" font-size="14.00">name: char</text>
</g>
<!-- Group&#45;&gt;Department -->
<g id="edge3" class="edge"><title>Group&#45;&gt;Department</title>
<path fill="none" stroke="black" d="M1162.86,-232.972C1090.89,-209.073 949.271,-162.047 870.9,-136.024"/>
<polygon fill="black" stroke="black" points="871.795,-132.633 861.201,-132.803 869.589,-139.276 871.795,-132.633"/>
</g>
<!-- GroupRole -->
<g id="node8" class="node"><title>GroupRole</title>
<ellipse fill="none" stroke="black" cx="1375.45" cy="-116.61" rx="56.6372" ry="26.7407"/>
<text text-anchor="middle" x="1375.45" y="-120.41" font-family="Times New Roman,serif" font-size="14.00">GroupRole</text>
<text text-anchor="middle" x="1375.45" y="-105.41" font-family="Times New Roman,serif" font-size="14.00">name: char</text>
</g>
<!-- Group&#45;&gt;GroupRole -->
<g id="edge4" class="edge"><title>Group&#45;&gt;GroupRole</title>
<path fill="none" stroke="black" d="M1235.95,-225.696C1264.31,-203.723 1307.94,-169.915 1338.85,-145.968"/>
<polygon fill="black" stroke="black" points="1341.05,-148.691 1346.81,-139.799 1336.76,-143.158 1341.05,-148.691"/>
</g>
<!-- GroupMember -->
<g id="node4" class="node"><title>GroupMember</title>
<ellipse fill="none" stroke="black" cx="1543.45" cy="-455.189" rx="70.922" ry="26.7407"/>
<text text-anchor="middle" x="1543.45" y="-458.989" font-family="Times New Roman,serif" font-size="14.00">GroupMember</text>
<text text-anchor="middle" x="1543.45" y="-443.989" font-family="Times New Roman,serif" font-size="14.00">is_active: bool</text>
</g>
<!-- GroupMember&#45;&gt;Group -->
<g id="edge5" class="edge"><title>GroupMember&#45;&gt;Group</title>
<path fill="none" stroke="black" d="M1527.94,-428.867C1512.84,-406.206 1487.88,-373.629 1458.45,-354.073 1414.19,-324.672 1393.71,-337.987 1344.45,-318.073 1312.71,-305.243 1278.22,-288.033 1251.79,-274.099"/>
<polygon fill="black" stroke="black" points="1253.27,-270.921 1242.8,-269.319 1249.99,-277.102 1253.27,-270.921"/>
</g>
<!-- GroupPermission -->
<g id="node6" class="node"><title>GroupPermission</title>
<ellipse fill="none" stroke="black" cx="1434.45" cy="-248.777" rx="81.135" ry="26.7407"/>
<text text-anchor="middle" x="1434.45" y="-252.577" font-family="Times New Roman,serif" font-size="14.00">GroupPermission</text>
<text text-anchor="middle" x="1434.45" y="-237.577" font-family="Times New Roman,serif" font-size="14.00">name: char</text>
</g>
<!-- GroupMember&#45;&gt;GroupPermission -->
<g id="edge6" class="edge"><title>GroupMember&#45;&gt;GroupPermission</title>
<path fill="none" stroke="black" d="M1529.86,-428.714C1510.48,-392.374 1474.84,-325.535 1453.03,-284.633"/>
<polygon fill="black" stroke="black" points="1456,-282.751 1448.2,-275.573 1449.82,-286.044 1456,-282.751"/>
</g>
<!-- GroupMember&#45;&gt;GroupRole -->
<g id="edge8" class="edge"><title>GroupMember&#45;&gt;GroupRole</title>
<path fill="none" stroke="black" d="M1549.9,-428.129C1561.31,-375.562 1578.99,-255.376 1524.45,-179.48 1504.54,-151.773 1469.84,-136.425 1438.93,-127.948"/>
<polygon fill="black" stroke="black" points="1439.61,-124.509 1429.05,-125.431 1437.88,-131.292 1439.61,-124.509"/>
</g>
<!-- GroupMember&#45;&gt;Person -->
<g id="edge7" class="edge"><title>GroupMember&#45;&gt;Person</title>
<path fill="none" stroke="black" d="M1529.31,-428.418C1514.84,-404.771 1490.02,-370.936 1458.45,-354.073 1396.49,-320.987 1214.17,-326.578 1144.45,-318.073 994.235,-299.748 820.203,-276.929 714.254,-262.859"/>
<polygon fill="black" stroke="black" points="714.591,-259.373 704.217,-261.525 713.669,-266.312 714.591,-259.373"/>
</g>
<!-- GroupMemberReview -->
<g id="node5" class="node"><title>GroupMemberReview</title>
<ellipse fill="none" stroke="black" cx="1531.45" cy="-629.782" rx="99.9045" ry="37.4533"/>
<text text-anchor="middle" x="1531.45" y="-641.082" font-family="Times New Roman,serif" font-size="14.00">GroupMemberReview</text>
<text text-anchor="middle" x="1531.45" y="-626.082" font-family="Times New Roman,serif" font-size="14.00">description: char</text>
<text text-anchor="middle" x="1531.45" y="-611.082" font-family="Times New Roman,serif" font-size="14.00">value: float</text>
</g>
<!-- GroupMemberReview&#45;&gt;GroupMember -->
<g id="edge10" class="edge"><title>GroupMemberReview&#45;&gt;GroupMember</title>
<path fill="none" stroke="black" d="M1533.99,-592.18C1536.04,-562.745 1538.9,-521.609 1540.94,-492.304"/>
<polygon fill="black" stroke="black" points="1544.44,-492.305 1541.65,-482.087 1537.46,-491.82 1544.44,-492.305"/>
</g>
<!-- GroupMemberReview&#45;&gt;Person -->
<g id="edge9" class="edge"><title>GroupMemberReview&#45;&gt;Person</title>
<path fill="none" stroke="black" d="M1492.33,-595.087C1481.43,-583.802 1470.63,-570.461 1463.45,-556.306 1422.06,-474.753 1491.97,-416.828 1425.45,-354.073 1379.65,-310.874 1206.89,-326.111 1144.45,-318.073 994.36,-298.752 820.293,-276.211 714.303,-262.47"/>
<polygon fill="black" stroke="black" points="714.629,-258.983 704.262,-261.169 713.729,-265.925 714.629,-258.983"/>
</g>
<!-- GroupReview -->
<g id="node7" class="node"><title>GroupReview</title>
<ellipse fill="none" stroke="black" cx="1135.45" cy="-455.189" rx="77.5641" ry="37.4533"/>
<text text-anchor="middle" x="1135.45" y="-466.489" font-family="Times New Roman,serif" font-size="14.00">GroupReview</text>
<text text-anchor="middle" x="1135.45" y="-451.489" font-family="Times New Roman,serif" font-size="14.00">description: char</text>
<text text-anchor="middle" x="1135.45" y="-436.489" font-family="Times New Roman,serif" font-size="14.00">value: float</text>
</g>
<!-- GroupReview&#45;&gt;Group -->
<g id="edge12" class="edge"><title>GroupReview&#45;&gt;Group</title>
<path fill="none" stroke="black" d="M1148.15,-418.115C1161.38,-380.554 1181.97,-322.11 1195.07,-284.905"/>
<polygon fill="black" stroke="black" points="1198.38,-286.064 1198.4,-275.469 1191.77,-283.738 1198.38,-286.064"/>
</g>
<!-- GroupReview&#45;&gt;Person -->
<g id="edge11" class="edge"><title>GroupReview&#45;&gt;Person</title>
<path fill="none" stroke="black" d="M1111.61,-419.097C1094.97,-397.237 1070.88,-370.282 1043.45,-354.073 941.329,-293.747 805.816,-268.228 715.098,-257.488"/>
<polygon fill="black" stroke="black" points="715.422,-254.002 705.089,-256.341 714.626,-260.957 715.422,-254.002"/>
</g>
<!-- GroupTest -->
<g id="node9" class="node"><title>GroupTest</title>
<ellipse fill="none" stroke="black" cx="908.447" cy="-455.189" rx="55.3091" ry="37.4533"/>
<text text-anchor="middle" x="908.447" y="-466.489" font-family="Times New Roman,serif" font-size="14.00">GroupTest</text>
<text text-anchor="middle" x="908.447" y="-451.489" font-family="Times New Roman,serif" font-size="14.00">info: char</text>
<text text-anchor="middle" x="908.447" y="-436.489" font-family="Times New Roman,serif" font-size="14.00">name: char</text>
</g>
<!-- GroupTest&#45;&gt;Group -->
<g id="edge13" class="edge"><title>GroupTest&#45;&gt;Group</title>
<path fill="none" stroke="black" d="M945.301,-427.22C973.368,-406.831 1013.07,-378.308 1048.45,-354.073 1088.03,-326.955 1133.91,-297.013 1166.19,-276.193"/>
<polygon fill="black" stroke="black" points="1168.4,-278.93 1174.91,-270.573 1164.61,-273.045 1168.4,-278.93"/>
</g>
<!-- GroupTestReview -->
<g id="node10" class="node"><title>GroupTestReview</title>
<ellipse fill="none" stroke="black" cx="915.447" cy="-629.782" rx="84.2917" ry="37.4533"/>
<text text-anchor="middle" x="915.447" y="-641.082" font-family="Times New Roman,serif" font-size="14.00">GroupTestReview</text>
<text text-anchor="middle" x="915.447" y="-626.082" font-family="Times New Roman,serif" font-size="14.00">description: char</text>
<text text-anchor="middle" x="915.447" y="-611.082" font-family="Times New Roman,serif" font-size="14.00">value: float</text>
</g>
<!-- GroupTestReview&#45;&gt;GroupTest -->
<g id="edge15" class="edge"><title>GroupTestReview&#45;&gt;GroupTest</title>
<path fill="none" stroke="black" d="M913.963,-592.18C912.905,-566.094 911.474,-530.818 910.335,-502.731"/>
<polygon fill="black" stroke="black" points="913.832,-502.589 909.93,-492.739 906.838,-502.873 913.832,-502.589"/>
</g>
<!-- GroupTestReview&#45;&gt;Person -->
<g id="edge14" class="edge"><title>GroupTestReview&#45;&gt;Person</title>
<path fill="none" stroke="black" d="M949.423,-595.162C958.724,-583.786 967.578,-570.374 972.447,-556.306 1001.85,-471.368 1026.33,-426.01 972.447,-354.073 941.309,-312.504 808.09,-281.914 713.783,-264.97"/>
<polygon fill="black" stroke="black" points="714.38,-261.522 703.923,-263.223 713.159,-268.414 714.38,-261.522"/>
</g>
<!-- HSReview -->
<g id="node11" class="node"><title>HSReview</title>
<ellipse fill="none" stroke="black" cx="91.4472" cy="-629.782" rx="77.5641" ry="37.4533"/>
<text text-anchor="middle" x="91.4472" y="-641.082" font-family="Times New Roman,serif" font-size="14.00">HSReview</text>
<text text-anchor="middle" x="91.4472" y="-626.082" font-family="Times New Roman,serif" font-size="14.00">description: char</text>
<text text-anchor="middle" x="91.4472" y="-611.082" font-family="Times New Roman,serif" font-size="14.00">value: float</text>
</g>
<!-- HSReview&#45;&gt;Person -->
<g id="edge16" class="edge"><title>HSReview&#45;&gt;Person</title>
<path fill="none" stroke="black" d="M150.902,-605.424C163.239,-600.86 176.208,-596.266 188.447,-592.306 246.303,-573.583 279.753,-601.491 320.447,-556.306 381.392,-488.634 290.824,-420.195 353.447,-354.073 404.762,-299.892 449.007,-347.818 517.447,-318.073 526.808,-314.005 536.203,-309.001 545.278,-303.566"/>
<polygon fill="black" stroke="black" points="547.214,-306.483 553.869,-298.239 543.526,-300.534 547.214,-306.483"/>
</g>
<!-- PersonHS -->
<g id="node15" class="node"><title>PersonHS</title>
<ellipse fill="none" stroke="black" cx="54.4472" cy="-455.189" rx="52.1524" ry="26.7407"/>
<text text-anchor="middle" x="54.4472" y="-458.989" font-family="Times New Roman,serif" font-size="14.00">PersonHS</text>
<text text-anchor="middle" x="54.4472" y="-443.989" font-family="Times New Roman,serif" font-size="14.00">level: float</text>
</g>
<!-- HSReview&#45;&gt;PersonHS -->
<g id="edge17" class="edge"><title>HSReview&#45;&gt;PersonHS</title>
<path fill="none" stroke="black" d="M83.6005,-592.18C77.2626,-562.616 68.3943,-521.248 62.1069,-491.919"/>
<polygon fill="black" stroke="black" points="65.5175,-491.131 59.999,-482.087 58.673,-492.598 65.5175,-491.131"/>
</g>
<!-- HardSkill -->
<g id="node12" class="node"><title>HardSkill</title>
<ellipse fill="none" stroke="black" cx="54.4472" cy="-248.777" rx="54.3945" ry="26.7407"/>
<text text-anchor="middle" x="54.4472" y="-252.577" font-family="Times New Roman,serif" font-size="14.00">HardSkill</text>
<text text-anchor="middle" x="54.4472" y="-237.577" font-family="Times New Roman,serif" font-size="14.00">name: char</text>
</g>
<!-- PersonHS&#45;&gt;HardSkill -->
<g id="edge18" class="edge"><title>PersonHS&#45;&gt;HardSkill</title>
<path fill="none" stroke="black" d="M54.4472,-428.3C54.4472,-392.228 54.4472,-326.689 54.4472,-285.846"/>
<polygon fill="black" stroke="black" points="57.9473,-285.778 54.4472,-275.778 50.9473,-285.778 57.9473,-285.778"/>
</g>
<!-- PersonHS&#45;&gt;Person -->
<g id="edge19" class="edge"><title>PersonHS&#45;&gt;Person</title>
<path fill="none" stroke="black" d="M62.8374,-428.415C72.0019,-404.766 89.1325,-370.93 116.447,-354.073 192.585,-307.085 433.302,-348.476 517.447,-318.073 527.195,-314.551 536.884,-309.827 546.172,-304.5"/>
<polygon fill="black" stroke="black" points="548.175,-307.38 554.942,-299.228 544.568,-301.381 548.175,-307.38"/>
</g>
<!-- PersonSS -->
<g id="node16" class="node"><title>PersonSS</title>
<ellipse fill="none" stroke="black" cx="457.447" cy="-455.189" rx="51.7379" ry="26.7407"/>
<text text-anchor="middle" x="457.447" y="-458.989" font-family="Times New Roman,serif" font-size="14.00">PersonSS</text>
<text text-anchor="middle" x="457.447" y="-443.989" font-family="Times New Roman,serif" font-size="14.00">level: float</text>
</g>
<!-- PersonSS&#45;&gt;Person -->
<g id="edge20" class="edge"><title>PersonSS&#45;&gt;Person</title>
<path fill="none" stroke="black" d="M472.489,-429.227C485.283,-408.544 504.539,-378.663 523.447,-354.073 534.017,-340.328 545.934,-326.128 557.622,-312.799"/>
<polygon fill="black" stroke="black" points="560.461,-314.871 564.465,-305.061 555.218,-310.233 560.461,-314.871"/>
</g>
<!-- SoftSkill -->
<g id="node19" class="node"><title>SoftSkill</title>
<ellipse fill="none" stroke="black" cx="454.447" cy="-248.777" rx="54.3945" ry="26.7407"/>
<text text-anchor="middle" x="454.447" y="-252.577" font-family="Times New Roman,serif" font-size="14.00">SoftSkill</text>
<text text-anchor="middle" x="454.447" y="-237.577" font-family="Times New Roman,serif" font-size="14.00">name: char</text>
</g>
<!-- PersonSS&#45;&gt;SoftSkill -->
<g id="edge21" class="edge"><title>PersonSS&#45;&gt;SoftSkill</title>
<path fill="none" stroke="black" d="M457.067,-428.3C456.538,-392.228 455.576,-326.689 454.977,-285.846"/>
<polygon fill="black" stroke="black" points="458.475,-285.725 454.829,-275.778 451.476,-285.828 458.475,-285.725"/>
</g>
<!-- PersonSpecialization -->
<g id="node17" class="node"><title>PersonSpecialization</title>
<ellipse fill="none" stroke="black" cx="218.447" cy="-455.189" rx="93.1765" ry="48.1667"/>
<text text-anchor="middle" x="218.447" y="-473.989" font-family="Times New Roman,serif" font-size="14.00">PersonSpecialization</text>
<text text-anchor="middle" x="218.447" y="-458.989" font-family="Times New Roman,serif" font-size="14.00">details: dict</text>
<text text-anchor="middle" x="218.447" y="-443.989" font-family="Times New Roman,serif" font-size="14.00">is_active: bool</text>
<text text-anchor="middle" x="218.447" y="-428.989" font-family="Times New Roman,serif" font-size="14.00">level: float</text>
</g>
<!-- PersonSpecialization&#45;&gt;Department -->
<g id="edge22" class="edge"><title>PersonSpecialization&#45;&gt;Department</title>
<path fill="none" stroke="black" d="M205.578,-407.447C191.879,-346.288 179.329,-239.825 237.447,-179.48 272.357,-143.233 603.758,-125.91 748.433,-120.026"/>
<polygon fill="black" stroke="black" points="748.669,-123.52 758.521,-119.623 748.389,-116.526 748.669,-123.52"/>
</g>
<!-- PersonSpecialization&#45;&gt;Person -->
<g id="edge23" class="edge"><title>PersonSpecialization&#45;&gt;Person</title>
<path fill="none" stroke="black" d="M254.376,-410.611C273.42,-390.345 298.439,-367.75 325.447,-354.073 402.902,-314.849 437.3,-351.452 517.447,-318.073 526.869,-314.149 536.302,-309.234 545.399,-303.849"/>
<polygon fill="black" stroke="black" points="547.319,-306.777 554.005,-298.559 543.653,-300.814 547.319,-306.777"/>
</g>
<!-- Specialization -->
<g id="node20" class="node"><title>Specialization</title>
<ellipse fill="none" stroke="black" cx="312.447" cy="-248.777" rx="65.5227" ry="37.4533"/>
<text text-anchor="middle" x="312.447" y="-260.077" font-family="Times New Roman,serif" font-size="14.00">Specialization</text>
<text text-anchor="middle" x="312.447" y="-245.077" font-family="Times New Roman,serif" font-size="14.00">detail: char</text>
<text text-anchor="middle" x="312.447" y="-230.077" font-family="Times New Roman,serif" font-size="14.00">type: char</text>
</g>
<!-- PersonSpecialization&#45;&gt;Specialization -->
<g id="edge24" class="edge"><title>PersonSpecialization&#45;&gt;Specialization</title>
<path fill="none" stroke="black" d="M239.543,-408.315C255.178,-374.315 276.375,-328.22 291.882,-294.498"/>
<polygon fill="black" stroke="black" points="295.097,-295.883 296.095,-285.335 288.738,-292.958 295.097,-295.883"/>
</g>
<!-- SSReview -->
<g id="node18" class="node"><title>SSReview</title>
<ellipse fill="none" stroke="black" cx="488.447" cy="-629.782" rx="77.5641" ry="37.4533"/>
<text text-anchor="middle" x="488.447" y="-641.082" font-family="Times New Roman,serif" font-size="14.00">SSReview</text>
<text text-anchor="middle" x="488.447" y="-626.082" font-family="Times New Roman,serif" font-size="14.00">description: char</text>
<text text-anchor="middle" x="488.447" y="-611.082" font-family="Times New Roman,serif" font-size="14.00">value: float</text>
</g>
<!-- SSReview&#45;&gt;Person -->
<g id="edge25" class="edge"><title>SSReview&#45;&gt;Person</title>
<path fill="none" stroke="black" d="M504.449,-593.044C509.31,-581.458 514.424,-568.458 518.447,-556.306 547.583,-468.309 538.954,-441.609 569.447,-354.073 572.974,-343.95 577.103,-333.459 581.423,-323.205"/>
<polygon fill="black" stroke="black" points="584.701,-324.442 585.433,-313.873 578.269,-321.679 584.701,-324.442"/>
</g>
<!-- SSReview&#45;&gt;PersonSS -->
<g id="edge26" class="edge"><title>SSReview&#45;&gt;PersonSS</title>
<path fill="none" stroke="black" d="M481.873,-592.18C476.586,-562.745 469.197,-521.609 463.934,-492.304"/>
<polygon fill="black" stroke="black" points="467.312,-491.31 462.099,-482.087 460.422,-492.548 467.312,-491.31"/>
</g>
<!-- SpecializationReview -->
<g id="node21" class="node"><title>SpecializationReview</title>
<ellipse fill="none" stroke="black" cx="292.447" cy="-629.782" rx="94.5053" ry="37.4533"/>
<text text-anchor="middle" x="292.447" y="-641.082" font-family="Times New Roman,serif" font-size="14.00">SpecializationReview</text>
<text text-anchor="middle" x="292.447" y="-626.082" font-family="Times New Roman,serif" font-size="14.00">description: char</text>
<text text-anchor="middle" x="292.447" y="-611.082" font-family="Times New Roman,serif" font-size="14.00">value: float</text>
</g>
<!-- SpecializationReview&#45;&gt;Person -->
<g id="edge27" class="edge"><title>SpecializationReview&#45;&gt;Person</title>
<path fill="none" stroke="black" d="M326.977,-594.764C336.845,-583.37 346.732,-570.048 353.447,-556.306 393.794,-473.747 334.11,-421.586 396.447,-354.073 434.51,-312.851 466.841,-342.303 517.447,-318.073 526.581,-313.7 535.808,-308.532 544.764,-303.028"/>
<polygon fill="black" stroke="black" points="546.671,-305.963 553.256,-297.663 542.932,-300.046 546.671,-305.963"/>
</g>
<!-- SpecializationReview&#45;&gt;PersonSpecialization -->
<g id="edge28" class="edge"><title>SpecializationReview&#45;&gt;PersonSpecialization</title>
<path fill="none" stroke="black" d="M276.934,-592.601C266.85,-569.081 253.507,-537.96 242.112,-511.383"/>
<polygon fill="black" stroke="black" points="245.328,-510.003 238.171,-502.191 238.895,-512.762 245.328,-510.003"/>
</g>
<!-- Survey -->
<g id="node22" class="node"><title>Survey</title>
<ellipse fill="none" stroke="black" cx="1323.45" cy="-455.189" rx="92.7622" ry="37.4533"/>
<text text-anchor="middle" x="1323.45" y="-466.489" font-family="Times New Roman,serif" font-size="14.00">Survey</text>
<text text-anchor="middle" x="1323.45" y="-451.489" font-family="Times New Roman,serif" font-size="14.00">description: char</text>
<text text-anchor="middle" x="1323.45" y="-436.489" font-family="Times New Roman,serif" font-size="14.00">survey_options: dict</text>
</g>
<!-- Survey&#45;&gt;Group -->
<g id="edge29" class="edge"><title>Survey&#45;&gt;Group</title>
<path fill="none" stroke="black" d="M1303.24,-418.583C1281.76,-380.727 1248.02,-321.279 1226.85,-283.971"/>
<polygon fill="black" stroke="black" points="1229.73,-281.959 1221.75,-274.989 1223.65,-285.414 1229.73,-281.959"/>
</g>
<!-- SurveyResponse -->
<g id="node23" class="node"><title>SurveyResponse</title>
<ellipse fill="none" stroke="black" cx="1118.45" cy="-629.782" rx="92.7622" ry="26.7407"/>
<text text-anchor="middle" x="1118.45" y="-633.582" font-family="Times New Roman,serif" font-size="14.00">SurveyResponse</text>
<text text-anchor="middle" x="1118.45" y="-618.582" font-family="Times New Roman,serif" font-size="14.00">chosen_option: char</text>
</g>
<!-- SurveyResponse&#45;&gt;Person -->
<g id="edge30" class="edge"><title>SurveyResponse&#45;&gt;Person</title>
<path fill="none" stroke="black" d="M1087.92,-604.134C1073.91,-591.279 1058.27,-574.462 1048.45,-556.306 1004.59,-475.23 1066.3,-420.55 1002.45,-354.073 962.89,-312.891 814.753,-281.565 713.934,-264.436"/>
<polygon fill="black" stroke="black" points="714.467,-260.977 704.026,-262.772 713.308,-267.88 714.467,-260.977"/>
</g>
<!-- SurveyResponse&#45;&gt;Survey -->
<g id="edge31" class="edge"><title>SurveyResponse&#45;&gt;Survey</title>
<path fill="none" stroke="black" d="M1155.67,-605.106C1176.02,-591.611 1201.32,-573.918 1222.45,-556.306 1244.05,-538.304 1266.42,-516.506 1284.6,-497.852"/>
<polygon fill="black" stroke="black" points="1287.17,-500.227 1291.6,-490.605 1282.14,-495.361 1287.17,-500.227"/>
</g>
<!-- SurveyResult -->
<g id="node24" class="node"><title>SurveyResult</title>
<ellipse fill="none" stroke="black" cx="1323.45" cy="-629.782" rx="79.3924" ry="26.7407"/>
<text text-anchor="middle" x="1323.45" y="-633.582" font-family="Times New Roman,serif" font-size="14.00">SurveyResult</text>
<text text-anchor="middle" x="1323.45" y="-618.582" font-family="Times New Roman,serif" font-size="14.00">survey_data: dict</text>
</g>
<!-- SurveyResult&#45;&gt;Survey -->
<g id="edge32" class="edge"><title>SurveyResult&#45;&gt;Survey</title>
<path fill="none" stroke="black" d="M1323.45,-602.569C1323.45,-576.191 1323.45,-534.943 1323.45,-502.947"/>
<polygon fill="black" stroke="black" points="1326.95,-502.914 1323.45,-492.914 1319.95,-502.914 1326.95,-502.914"/>
</g>
<!-- TestResult -->
<g id="node25" class="node"><title>TestResult</title>
<ellipse fill="none" stroke="black" cx="686.447" cy="-629.782" rx="70.922" ry="26.7407"/>
<text text-anchor="middle" x="686.447" y="-633.582" font-family="Times New Roman,serif" font-size="14.00">TestResult</text>
<text text-anchor="middle" x="686.447" y="-618.582" font-family="Times New Roman,serif" font-size="14.00">result_data: list</text>
</g>
<!-- TestResult&#45;&gt;GroupTest -->
<g id="edge34" class="edge"><title>TestResult&#45;&gt;GroupTest</title>
<path fill="none" stroke="black" d="M740.965,-612.513C773.637,-600.767 814.508,-582.355 844.447,-556.306 862.182,-540.875 876.809,-519.345 887.581,-500.202"/>
<polygon fill="black" stroke="black" points="890.708,-501.779 892.406,-491.321 884.557,-498.437 890.708,-501.779"/>
</g>
<!-- TestResult&#45;&gt;Person -->
<g id="edge33" class="edge"><title>TestResult&#45;&gt;Person</title>
<path fill="none" stroke="black" d="M645.159,-607.737C625.98,-595.555 605.099,-578.258 594.447,-556.306 559.276,-483.825 573.25,-390.204 590.629,-325.598"/>
<polygon fill="black" stroke="black" points="594.023,-326.456 593.327,-315.884 587.279,-324.583 594.023,-326.456"/>
</g>
</g>
</svg>
