<?xml version="1.0" encoding="UTF-8" standalone="no"?>
<!DOCTYPE svg PUBLIC "-//W3C//DTD SVG 1.1//EN"
 "http://www.w3.org/Graphics/SVG/1.1/DTD/svg11.dtd">
<!-- Generated by graphviz version 2.38.0 (20140413.2041)
 -->
<!-- Title: %3 Pages: 1 -->
<svg width="1577pt" height="654pt"
 viewBox="0.00 0.00 1577.48 654.05" xmlns="http://www.w3.org/2000/svg" xmlns:xlink="http://www.w3.org/1999/xlink">
<g id="graph0" class="graph" transform="scale(1 1) rotate(0) translate(4 650.046)">
<title>%3</title>
<polygon fill="white" stroke="none" points="-4,4 -4,-650.046 1573.48,-650.046 1573.48,4 -4,4"/>
<!-- AuthInfo -->
<g id="node1" class="node"><title>AuthInfo</title>
<ellipse fill="none" stroke="black" cx="689.782" cy="-444.583" rx="84.2917" ry="90.5193"/>
<text text-anchor="middle" x="689.782" y="-493.383" font-family="Times New Roman,serif" font-size="14.00">AuthInfo</text>
<text text-anchor="middle" x="689.782" y="-478.383" font-family="Times New Roman,serif" font-size="14.00">attempts: int</text>
<text text-anchor="middle" x="689.782" y="-463.383" font-family="Times New Roman,serif" font-size="14.00">auth_code: char</text>
<text text-anchor="middle" x="689.782" y="-448.383" font-family="Times New Roman,serif" font-size="14.00">is_approved: bool</text>
<text text-anchor="middle" x="689.782" y="-433.383" font-family="Times New Roman,serif" font-size="14.00">password: char</text>
<text text-anchor="middle" x="689.782" y="-418.383" font-family="Times New Roman,serif" font-size="14.00">permissions: int</text>
<text text-anchor="middle" x="689.782" y="-403.383" font-family="Times New Roman,serif" font-size="14.00">phone_no: char</text>
<text text-anchor="middle" x="689.782" y="-388.383" font-family="Times New Roman,serif" font-size="14.00">session_id: char</text>
</g>
<!-- Person -->
<g id="node14" class="node"><title>Person</title>
<ellipse fill="none" stroke="black" cx="618.782" cy="-248.777" rx="89.191" ry="69.0935"/>
<text text-anchor="middle" x="618.782" y="-282.577" font-family="Times New Roman,serif" font-size="14.00">Person</text>
<text text-anchor="middle" x="618.782" y="-267.577" font-family="Times New Roman,serif" font-size="14.00">birth_date: datetime</text>
<text text-anchor="middle" x="618.782" y="-252.577" font-family="Times New Roman,serif" font-size="14.00">first_name: char</text>
<text text-anchor="middle" x="618.782" y="-237.577" font-family="Times New Roman,serif" font-size="14.00">middle_name: char</text>
<text text-anchor="middle" x="618.782" y="-222.577" font-family="Times New Roman,serif" font-size="14.00">phone_no: char</text>
<text text-anchor="middle" x="618.782" y="-207.577" font-family="Times New Roman,serif" font-size="14.00">surname: char</text>
</g>
<!-- AuthInfo&#45;&gt;Person -->
<g id="edge1" class="edge"><title>AuthInfo&#45;&gt;Person</title>
<path fill="none" stroke="black" d="M659.156,-359.985C654.905,-348.38 650.558,-336.515 646.366,-325.073"/>
<polygon fill="black" stroke="black" points="649.614,-323.763 642.887,-315.577 643.041,-326.171 649.614,-323.763"/>
</g>
<!-- Department -->
<g id="node2" class="node"><title>Department</title>
<ellipse fill="none" stroke="black" cx="785.782" cy="-116.61" rx="57.0522" ry="26.7407"/>
<text text-anchor="middle" x="785.782" y="-120.41" font-family="Times New Roman,serif" font-size="14.00">Department</text>
<text text-anchor="middle" x="785.782" y="-105.41" font-family="Times New Roman,serif" font-size="14.00">name: char</text>
</g>
<!-- Organization -->
<g id="node13" class="node"><title>Organization</title>
<ellipse fill="none" stroke="black" cx="785.782" cy="-26.8701" rx="61.5366" ry="26.7407"/>
<text text-anchor="middle" x="785.782" y="-30.6701" font-family="Times New Roman,serif" font-size="14.00">Organization</text>
<text text-anchor="middle" x="785.782" y="-15.6701" font-family="Times New Roman,serif" font-size="14.00">name: char</text>
</g>
<!-- Department&#45;&gt;Organization -->
<g id="edge2" class="edge"><title>Department&#45;&gt;Organization</title>
<path fill="none" stroke="black" d="M785.782,-89.2852C785.782,-81.3185 785.782,-72.4275 785.782,-63.9391"/>
<polygon fill="black" stroke="black" points="789.282,-63.874 785.782,-53.874 782.282,-63.8741 789.282,-63.874"/>
</g>
<!-- Group -->
<g id="node3" class="node"><title>Group</title>
<ellipse fill="none" stroke="black" cx="1145.78" cy="-248.777" rx="54.3945" ry="26.7407"/>
<text text-anchor="middle" x="1145.78" y="-252.577" font-family="Times New Roman,serif" font-size="14.00">Group</text>
<text text-anchor="middle" x="1145.78" y="-237.577" font-family="Times New Roman,serif" font-size="14.00">name: char</text>
</g>
<!-- Group&#45;&gt;Department -->
<g id="edge3" class="edge"><title>Group&#45;&gt;Department</title>
<path fill="none" stroke="black" d="M1102.71,-232.205C1037.03,-208.455 911.894,-163.209 840.076,-137.241"/>
<polygon fill="black" stroke="black" points="840.902,-133.818 830.307,-133.709 838.521,-140.401 840.902,-133.818"/>
</g>
<!-- GroupRole -->
<g id="node8" class="node"><title>GroupRole</title>
<ellipse fill="none" stroke="black" cx="1313.78" cy="-116.61" rx="56.6372" ry="26.7407"/>
<text text-anchor="middle" x="1313.78" y="-120.41" font-family="Times New Roman,serif" font-size="14.00">GroupRole</text>
<text text-anchor="middle" x="1313.78" y="-105.41" font-family="Times New Roman,serif" font-size="14.00">name: char</text>
</g>
<!-- Group&#45;&gt;GroupRole -->
<g id="edge4" class="edge"><title>Group&#45;&gt;GroupRole</title>
<path fill="none" stroke="black" d="M1174.28,-225.696C1202.64,-203.723 1246.27,-169.915 1277.18,-145.968"/>
<polygon fill="black" stroke="black" points="1279.38,-148.691 1285.14,-139.799 1275.09,-143.158 1279.38,-148.691"/>
</g>
<!-- GroupMember -->
<g id="node4" class="node"><title>GroupMember</title>
<ellipse fill="none" stroke="black" cx="1481.78" cy="-444.583" rx="70.922" ry="26.7407"/>
<text text-anchor="middle" x="1481.78" y="-448.383" font-family="Times New Roman,serif" font-size="14.00">GroupMember</text>
<text text-anchor="middle" x="1481.78" y="-433.383" font-family="Times New Roman,serif" font-size="14.00">is_active: bool</text>
</g>
<!-- GroupMember&#45;&gt;Group -->
<g id="edge5" class="edge"><title>GroupMember&#45;&gt;Group</title>
<path fill="none" stroke="black" d="M1463.52,-418.207C1447.89,-398.172 1423.68,-370.882 1396.78,-354.073 1351.72,-325.915 1332.04,-337.987 1282.78,-318.073 1251.04,-305.243 1216.56,-288.033 1190.13,-274.099"/>
<polygon fill="black" stroke="black" points="1191.6,-270.921 1181.13,-269.319 1188.32,-277.102 1191.6,-270.921"/>
</g>
<!-- GroupPermission -->
<g id="node6" class="node"><title>GroupPermission</title>
<ellipse fill="none" stroke="black" cx="1372.78" cy="-248.777" rx="81.135" ry="26.7407"/>
<text text-anchor="middle" x="1372.78" y="-252.577" font-family="Times New Roman,serif" font-size="14.00">GroupPermission</text>
<text text-anchor="middle" x="1372.78" y="-237.577" font-family="Times New Roman,serif" font-size="14.00">name: char</text>
</g>
<!-- GroupMember&#45;&gt;GroupPermission -->
<g id="edge6" class="edge"><title>GroupMember&#45;&gt;GroupPermission</title>
<path fill="none" stroke="black" d="M1467.53,-418.246C1448.25,-383.955 1413.77,-322.649 1392.15,-284.207"/>
<polygon fill="black" stroke="black" points="1395.16,-282.429 1387.21,-275.428 1389.06,-285.86 1395.16,-282.429"/>
</g>
<!-- GroupMember&#45;&gt;GroupRole -->
<g id="edge8" class="edge"><title>GroupMember&#45;&gt;GroupRole</title>
<path fill="none" stroke="black" d="M1488.07,-417.738C1498.87,-366.782 1515.06,-252.014 1462.78,-179.48 1442.83,-151.8 1408.13,-136.454 1377.23,-127.971"/>
<polygon fill="black" stroke="black" points="1377.91,-124.533 1367.36,-125.451 1376.18,-131.315 1377.91,-124.533"/>
</g>
<!-- GroupMember&#45;&gt;Person -->
<g id="edge7" class="edge"><title>GroupMember&#45;&gt;Person</title>
<path fill="none" stroke="black" d="M1465.23,-418.051C1450.11,-397.064 1425.74,-368.517 1396.78,-354.073 1271.08,-291.373 1222.06,-336.303 1082.78,-318.073 955.81,-301.454 809.728,-279.479 715.936,-265.001"/>
<polygon fill="black" stroke="black" points="716.312,-261.517 705.895,-263.448 715.243,-268.435 716.312,-261.517"/>
</g>
<!-- GroupMemberReview -->
<g id="node5" class="node"><title>GroupMemberReview</title>
<ellipse fill="none" stroke="black" cx="1469.78" cy="-608.569" rx="99.9045" ry="37.4533"/>
<text text-anchor="middle" x="1469.78" y="-619.869" font-family="Times New Roman,serif" font-size="14.00">GroupMemberReview</text>
<text text-anchor="middle" x="1469.78" y="-604.869" font-family="Times New Roman,serif" font-size="14.00">description: char</text>
<text text-anchor="middle" x="1469.78" y="-589.869" font-family="Times New Roman,serif" font-size="14.00">value: float</text>
</g>
<!-- GroupMemberReview&#45;&gt;GroupMember -->
<g id="edge10" class="edge"><title>GroupMemberReview&#45;&gt;GroupMember</title>
<path fill="none" stroke="black" d="M1472.5,-570.812C1474.48,-544.112 1477.15,-508.161 1479.11,-481.628"/>
<polygon fill="black" stroke="black" points="1482.61,-481.834 1479.85,-471.603 1475.62,-481.317 1482.61,-481.834"/>
</g>
<!-- GroupMemberReview&#45;&gt;Person -->
<g id="edge9" class="edge"><title>GroupMemberReview&#45;&gt;Person</title>
<path fill="none" stroke="black" d="M1430.84,-573.779C1419.96,-562.49 1409.12,-549.171 1401.78,-535.092 1363.8,-462.184 1424.17,-409.846 1363.78,-354.073 1317.53,-311.362 1145.15,-326.657 1082.78,-318.073 956.118,-300.639 810.263,-278.896 716.418,-264.69"/>
<polygon fill="black" stroke="black" points="716.782,-261.206 706.37,-263.168 715.733,-268.127 716.782,-261.206"/>
</g>
<!-- GroupReview -->
<g id="node7" class="node"><title>GroupReview</title>
<ellipse fill="none" stroke="black" cx="1073.78" cy="-444.583" rx="77.5641" ry="37.4533"/>
<text text-anchor="middle" x="1073.78" y="-455.883" font-family="Times New Roman,serif" font-size="14.00">GroupReview</text>
<text text-anchor="middle" x="1073.78" y="-440.883" font-family="Times New Roman,serif" font-size="14.00">description: char</text>
<text text-anchor="middle" x="1073.78" y="-425.883" font-family="Times New Roman,serif" font-size="14.00">value: float</text>
</g>
<!-- GroupReview&#45;&gt;Group -->
<g id="edge12" class="edge"><title>GroupReview&#45;&gt;Group</title>
<path fill="none" stroke="black" d="M1087.16,-407.584C1100.15,-372.613 1119.75,-319.845 1132.66,-285.104"/>
<polygon fill="black" stroke="black" points="1136.07,-285.97 1136.27,-275.378 1129.51,-283.533 1136.07,-285.97"/>
</g>
<!-- GroupReview&#45;&gt;Person -->
<g id="edge11" class="edge"><title>GroupReview&#45;&gt;Person</title>
<path fill="none" stroke="black" d="M1045.89,-409.123C1029.09,-390.416 1006.26,-368.276 981.782,-354.073 899.007,-306.047 792.63,-278.883 716.466,-264.402"/>
<polygon fill="black" stroke="black" points="716.867,-260.917 706.395,-262.528 715.586,-267.799 716.867,-260.917"/>
</g>
<!-- GroupTest -->
<g id="node9" class="node"><title>GroupTest</title>
<ellipse fill="none" stroke="black" cx="846.782" cy="-444.583" rx="55.3091" ry="37.4533"/>
<text text-anchor="middle" x="846.782" y="-455.883" font-family="Times New Roman,serif" font-size="14.00">GroupTest</text>
<text text-anchor="middle" x="846.782" y="-440.883" font-family="Times New Roman,serif" font-size="14.00">info: char</text>
<text text-anchor="middle" x="846.782" y="-425.883" font-family="Times New Roman,serif" font-size="14.00">name: char</text>
</g>
<!-- GroupTest&#45;&gt;Group -->
<g id="edge13" class="edge"><title>GroupTest&#45;&gt;Group</title>
<path fill="none" stroke="black" d="M886.178,-418.047C943.043,-381.188 1047.6,-313.419 1105.14,-276.117"/>
<polygon fill="black" stroke="black" points="1107.14,-278.997 1113.62,-270.621 1103.33,-273.123 1107.14,-278.997"/>
</g>
<!-- GroupTestReview -->
<g id="node10" class="node"><title>GroupTestReview</title>
<ellipse fill="none" stroke="black" cx="853.782" cy="-608.569" rx="84.2917" ry="37.4533"/>
<text text-anchor="middle" x="853.782" y="-619.869" font-family="Times New Roman,serif" font-size="14.00">GroupTestReview</text>
<text text-anchor="middle" x="853.782" y="-604.869" font-family="Times New Roman,serif" font-size="14.00">description: char</text>
<text text-anchor="middle" x="853.782" y="-589.869" font-family="Times New Roman,serif" font-size="14.00">value: float</text>
</g>
<!-- GroupTestReview&#45;&gt;GroupTest -->
<g id="edge15" class="edge"><title>GroupTestReview&#45;&gt;GroupTest</title>
<path fill="none" stroke="black" d="M852.193,-570.812C851.191,-547.616 849.887,-517.436 848.81,-492.517"/>
<polygon fill="black" stroke="black" points="852.292,-492.034 848.364,-482.195 845.299,-492.336 852.292,-492.034"/>
</g>
<!-- GroupTestReview&#45;&gt;Person -->
<g id="edge14" class="edge"><title>GroupTestReview&#45;&gt;Person</title>
<path fill="none" stroke="black" d="M887.758,-573.948C897.058,-562.573 905.912,-549.161 910.782,-535.092 937.097,-459.065 957.126,-419.837 910.782,-354.073 867.425,-292.547 784.322,-267.117 717.824,-256.707"/>
<polygon fill="black" stroke="black" points="718.125,-253.213 707.722,-255.219 717.105,-260.139 718.125,-253.213"/>
</g>
<!-- HSReview -->
<g id="node11" class="node"><title>HSReview</title>
<ellipse fill="none" stroke="black" cx="77.7817" cy="-608.569" rx="77.5641" ry="37.4533"/>
<text text-anchor="middle" x="77.7817" y="-619.869" font-family="Times New Roman,serif" font-size="14.00">HSReview</text>
<text text-anchor="middle" x="77.7817" y="-604.869" font-family="Times New Roman,serif" font-size="14.00">description: char</text>
<text text-anchor="middle" x="77.7817" y="-589.869" font-family="Times New Roman,serif" font-size="14.00">value: float</text>
</g>
<!-- HSReview&#45;&gt;Person -->
<g id="edge16" class="edge"><title>HSReview&#45;&gt;Person</title>
<path fill="none" stroke="black" d="M136.895,-584.042C149.315,-579.466 162.403,-574.91 174.782,-571.092 239.471,-551.142 276.329,-584.335 322.782,-535.092 378.899,-475.606 298.999,-412.924 355.782,-354.073 407.597,-300.371 451.342,-347.818 519.782,-318.073 529.142,-314.005 538.537,-309.001 547.612,-303.566"/>
<polygon fill="black" stroke="black" points="549.549,-306.483 556.204,-298.239 545.86,-300.534 549.549,-306.483"/>
</g>
<!-- PersonHS -->
<g id="node15" class="node"><title>PersonHS</title>
<ellipse fill="none" stroke="black" cx="56.7817" cy="-444.583" rx="52.1524" ry="26.7407"/>
<text text-anchor="middle" x="56.7817" y="-448.383" font-family="Times New Roman,serif" font-size="14.00">PersonHS</text>
<text text-anchor="middle" x="56.7817" y="-433.383" font-family="Times New Roman,serif" font-size="14.00">level: float</text>
</g>
<!-- HSReview&#45;&gt;PersonHS -->
<g id="edge17" class="edge"><title>HSReview&#45;&gt;PersonHS</title>
<path fill="none" stroke="black" d="M73.0165,-570.812C69.5552,-544.112 64.8944,-508.161 61.4546,-481.628"/>
<polygon fill="black" stroke="black" points="64.9117,-481.07 60.155,-471.603 57.9698,-481.97 64.9117,-481.07"/>
</g>
<!-- HardSkill -->
<g id="node12" class="node"><title>HardSkill</title>
<ellipse fill="none" stroke="black" cx="56.7817" cy="-248.777" rx="54.3945" ry="26.7407"/>
<text text-anchor="middle" x="56.7817" y="-252.577" font-family="Times New Roman,serif" font-size="14.00">HardSkill</text>
<text text-anchor="middle" x="56.7817" y="-237.577" font-family="Times New Roman,serif" font-size="14.00">name: char</text>
</g>
<!-- PersonHS&#45;&gt;HardSkill -->
<g id="edge18" class="edge"><title>PersonHS&#45;&gt;HardSkill</title>
<path fill="none" stroke="black" d="M56.7817,-417.445C56.7817,-383.54 56.7817,-324.222 56.7817,-285.993"/>
<polygon fill="black" stroke="black" points="60.2818,-285.809 56.7817,-275.809 53.2818,-285.809 60.2818,-285.809"/>
</g>
<!-- PersonHS&#45;&gt;Person -->
<g id="edge19" class="edge"><title>PersonHS&#45;&gt;Person</title>
<path fill="none" stroke="black" d="M67.0668,-418.01C76.9758,-396.997 94.1141,-368.436 118.782,-354.073 196.1,-309.054 435.636,-348.476 519.782,-318.073 529.529,-314.551 539.219,-309.827 548.506,-304.5"/>
<polygon fill="black" stroke="black" points="550.51,-307.38 557.277,-299.228 546.903,-301.381 550.51,-307.38"/>
</g>
<!-- PersonSS -->
<g id="node16" class="node"><title>PersonSS</title>
<ellipse fill="none" stroke="black" cx="459.782" cy="-444.583" rx="51.7379" ry="26.7407"/>
<text text-anchor="middle" x="459.782" y="-448.383" font-family="Times New Roman,serif" font-size="14.00">PersonSS</text>
<text text-anchor="middle" x="459.782" y="-433.383" font-family="Times New Roman,serif" font-size="14.00">level: float</text>
</g>
<!-- PersonSS&#45;&gt;Person -->
<g id="edge20" class="edge"><title>PersonSS&#45;&gt;Person</title>
<path fill="none" stroke="black" d="M476.837,-419.19C489.828,-400.928 508.383,-375.511 525.782,-354.073 536.709,-340.61 548.783,-326.535 560.513,-313.239"/>
<polygon fill="black" stroke="black" points="563.35,-315.314 567.368,-305.511 558.114,-310.669 563.35,-315.314"/>
</g>
<!-- SoftSkill -->
<g id="node19" class="node"><title>SoftSkill</title>
<ellipse fill="none" stroke="black" cx="456.782" cy="-248.777" rx="54.3945" ry="26.7407"/>
<text text-anchor="middle" x="456.782" y="-252.577" font-family="Times New Roman,serif" font-size="14.00">SoftSkill</text>
<text text-anchor="middle" x="456.782" y="-237.577" font-family="Times New Roman,serif" font-size="14.00">name: char</text>
</g>
<!-- PersonSS&#45;&gt;SoftSkill -->
<g id="edge21" class="edge"><title>PersonSS&#45;&gt;SoftSkill</title>
<path fill="none" stroke="black" d="M459.377,-417.445C458.852,-383.54 457.934,-324.222 457.342,-285.993"/>
<polygon fill="black" stroke="black" points="460.839,-285.754 457.185,-275.809 453.84,-285.862 460.839,-285.754"/>
</g>
<!-- PersonSpecialization -->
<g id="node17" class="node"><title>PersonSpecialization</title>
<ellipse fill="none" stroke="black" cx="220.782" cy="-444.583" rx="93.1765" ry="48.1667"/>
<text text-anchor="middle" x="220.782" y="-463.383" font-family="Times New Roman,serif" font-size="14.00">PersonSpecialization</text>
<text text-anchor="middle" x="220.782" y="-448.383" font-family="Times New Roman,serif" font-size="14.00">details: dict</text>
<text text-anchor="middle" x="220.782" y="-433.383" font-family="Times New Roman,serif" font-size="14.00">is_active: bool</text>
<text text-anchor="middle" x="220.782" y="-418.383" font-family="Times New Roman,serif" font-size="14.00">level: float</text>
</g>
<!-- PersonSpecialization&#45;&gt;Department -->
<g id="edge22" class="edge"><title>PersonSpecialization&#45;&gt;Department</title>
<path fill="none" stroke="black" d="M208.222,-396.904C195.458,-337.876 184.553,-237.022 239.782,-179.48 272.408,-145.488 579.836,-127.114 718.505,-120.497"/>
<polygon fill="black" stroke="black" points="718.767,-123.988 728.592,-120.022 718.438,-116.996 718.767,-123.988"/>
</g>
<!-- PersonSpecialization&#45;&gt;Person -->
<g id="edge23" class="edge"><title>PersonSpecialization&#45;&gt;Person</title>
<path fill="none" stroke="black" d="M261.227,-401.239C279.915,-384.065 303.361,-365.6 327.782,-354.073 406.296,-317.015 439.634,-351.452 519.782,-318.073 529.204,-314.149 538.637,-309.234 547.733,-303.849"/>
<polygon fill="black" stroke="black" points="549.653,-306.777 556.34,-298.559 545.988,-300.814 549.653,-306.777"/>
</g>
<!-- Specialization -->
<g id="node20" class="node"><title>Specialization</title>
<ellipse fill="none" stroke="black" cx="314.782" cy="-248.777" rx="65.5227" ry="37.4533"/>
<text text-anchor="middle" x="314.782" y="-260.077" font-family="Times New Roman,serif" font-size="14.00">Specialization</text>
<text text-anchor="middle" x="314.782" y="-245.077" font-family="Times New Roman,serif" font-size="14.00">detail: char</text>
<text text-anchor="middle" x="314.782" y="-230.077" font-family="Times New Roman,serif" font-size="14.00">type: char</text>
</g>
<!-- PersonSpecialization&#45;&gt;Specialization -->
<g id="edge24" class="edge"><title>PersonSpecialization&#45;&gt;Specialization</title>
<path fill="none" stroke="black" d="M243.058,-397.653C258.212,-366.409 278.16,-325.282 293.171,-294.333"/>
<polygon fill="black" stroke="black" points="296.445,-295.602 297.66,-285.077 290.147,-292.547 296.445,-295.602"/>
</g>
<!-- SSReview -->
<g id="node18" class="node"><title>SSReview</title>
<ellipse fill="none" stroke="black" cx="474.782" cy="-608.569" rx="77.5641" ry="37.4533"/>
<text text-anchor="middle" x="474.782" y="-619.869" font-family="Times New Roman,serif" font-size="14.00">SSReview</text>
<text text-anchor="middle" x="474.782" y="-604.869" font-family="Times New Roman,serif" font-size="14.00">description: char</text>
<text text-anchor="middle" x="474.782" y="-589.869" font-family="Times New Roman,serif" font-size="14.00">value: float</text>
</g>
<!-- SSReview&#45;&gt;Person -->
<g id="edge25" class="edge"><title>SSReview&#45;&gt;Person</title>
<path fill="none" stroke="black" d="M499.357,-572.842C506.897,-561.202 514.779,-547.915 520.782,-535.092 556.598,-458.579 550.756,-433.771 578.782,-354.073 582.146,-344.507 585.804,-334.497 589.497,-324.625"/>
<polygon fill="black" stroke="black" points="592.79,-325.812 593.039,-315.22 586.239,-323.345 592.79,-325.812"/>
</g>
<!-- SSReview&#45;&gt;PersonSS -->
<g id="edge26" class="edge"><title>SSReview&#45;&gt;PersonSS</title>
<path fill="none" stroke="black" d="M471.378,-570.812C468.906,-544.112 465.577,-508.161 463.12,-481.628"/>
<polygon fill="black" stroke="black" points="466.598,-481.238 462.191,-471.603 459.628,-481.883 466.598,-481.238"/>
</g>
<!-- SpecializationReview -->
<g id="node21" class="node"><title>SpecializationReview</title>
<ellipse fill="none" stroke="black" cx="278.782" cy="-608.569" rx="94.5053" ry="37.4533"/>
<text text-anchor="middle" x="278.782" y="-619.869" font-family="Times New Roman,serif" font-size="14.00">SpecializationReview</text>
<text text-anchor="middle" x="278.782" y="-604.869" font-family="Times New Roman,serif" font-size="14.00">description: char</text>
<text text-anchor="middle" x="278.782" y="-589.869" font-family="Times New Roman,serif" font-size="14.00">value: float</text>
</g>
<!-- SpecializationReview&#45;&gt;Person -->
<g id="edge27" class="edge"><title>SpecializationReview&#45;&gt;Person</title>
<path fill="none" stroke="black" d="M321.88,-575.177C334.464,-563.77 347.141,-550.03 355.782,-535.092 397.188,-463.514 341.969,-414.158 398.782,-354.073 437.33,-313.305 469.176,-342.303 519.782,-318.073 528.916,-313.7 538.142,-308.532 547.098,-303.028"/>
<polygon fill="black" stroke="black" points="549.006,-305.963 555.59,-297.663 545.267,-300.046 549.006,-305.963"/>
</g>
<!-- SpecializationReview&#45;&gt;PersonSpecialization -->
<g id="edge28" class="edge"><title>SpecializationReview&#45;&gt;PersonSpecialization</title>
<path fill="none" stroke="black" d="M265.765,-571.216C258.43,-550.73 249.111,-524.702 240.859,-501.656"/>
<polygon fill="black" stroke="black" points="244.063,-500.222 237.397,-491.987 237.473,-502.582 244.063,-500.222"/>
</g>
<!-- Survey -->
<g id="node22" class="node"><title>Survey</title>
<ellipse fill="none" stroke="black" cx="1261.78" cy="-444.583" rx="92.7622" ry="37.4533"/>
<text text-anchor="middle" x="1261.78" y="-455.883" font-family="Times New Roman,serif" font-size="14.00">Survey</text>
<text text-anchor="middle" x="1261.78" y="-440.883" font-family="Times New Roman,serif" font-size="14.00">description: char</text>
<text text-anchor="middle" x="1261.78" y="-425.883" font-family="Times New Roman,serif" font-size="14.00">survey_options: dict</text>
</g>
<!-- Survey&#45;&gt;Group -->
<g id="edge29" class="edge"><title>Survey&#45;&gt;Group</title>
<path fill="none" stroke="black" d="M1240.51,-408.036C1219.25,-372.525 1186.82,-318.339 1165.96,-283.489"/>
<polygon fill="black" stroke="black" points="1168.8,-281.419 1160.66,-274.636 1162.79,-285.014 1168.8,-281.419"/>
</g>
<!-- SurveyResponse -->
<g id="node23" class="node"><title>SurveyResponse</title>
<ellipse fill="none" stroke="black" cx="1056.78" cy="-608.569" rx="92.7622" ry="26.7407"/>
<text text-anchor="middle" x="1056.78" y="-612.369" font-family="Times New Roman,serif" font-size="14.00">SurveyResponse</text>
<text text-anchor="middle" x="1056.78" y="-597.369" font-family="Times New Roman,serif" font-size="14.00">chosen_option: char</text>
</g>
<!-- SurveyResponse&#45;&gt;Person -->
<g id="edge30" class="edge"><title>SurveyResponse&#45;&gt;Person</title>
<path fill="none" stroke="black" d="M1026.88,-583.093C1012.85,-570.159 997.01,-553.224 986.782,-535.092 945.887,-462.598 995.97,-414.549 938.782,-354.073 881.575,-293.577 788.911,-268.114 717.985,-257.427"/>
<polygon fill="black" stroke="black" points="718.08,-253.905 707.685,-255.955 717.09,-260.835 718.08,-253.905"/>
</g>
<!-- SurveyResponse&#45;&gt;Survey -->
<g id="edge31" class="edge"><title>SurveyResponse&#45;&gt;Survey</title>
<path fill="none" stroke="black" d="M1093.14,-583.751C1113.46,-570.07 1138.99,-552.245 1160.78,-535.092 1180.1,-519.886 1200.55,-502.107 1217.96,-486.419"/>
<polygon fill="black" stroke="black" points="1220.67,-488.685 1225.73,-479.376 1215.97,-483.499 1220.67,-488.685"/>
</g>
<!-- SurveyResult -->
<g id="node24" class="node"><title>SurveyResult</title>
<ellipse fill="none" stroke="black" cx="1261.78" cy="-608.569" rx="79.3924" ry="26.7407"/>
<text text-anchor="middle" x="1261.78" y="-612.369" font-family="Times New Roman,serif" font-size="14.00">SurveyResult</text>
<text text-anchor="middle" x="1261.78" y="-597.369" font-family="Times New Roman,serif" font-size="14.00">survey_data: dict</text>
</g>
<!-- SurveyResult&#45;&gt;Survey -->
<g id="edge32" class="edge"><title>SurveyResult&#45;&gt;Survey</title>
<path fill="none" stroke="black" d="M1261.78,-581.543C1261.78,-557.568 1261.78,-521.426 1261.78,-492.431"/>
<polygon fill="black" stroke="black" points="1265.28,-492.108 1261.78,-482.108 1258.28,-492.108 1265.28,-492.108"/>
</g>
<!-- TestResult -->
<g id="node25" class="node"><title>TestResult</title>
<ellipse fill="none" stroke="black" cx="656.782" cy="-608.569" rx="70.922" ry="26.7407"/>
<text text-anchor="middle" x="656.782" y="-612.369" font-family="Times New Roman,serif" font-size="14.00">TestResult</text>
<text text-anchor="middle" x="656.782" y="-597.369" font-family="Times New Roman,serif" font-size="14.00">result_data: list</text>
</g>
<!-- TestResult&#45;&gt;GroupTest -->
<g id="edge34" class="edge"><title>TestResult&#45;&gt;GroupTest</title>
<path fill="none" stroke="black" d="M701.528,-587.744C727.095,-575.039 758.748,-556.863 782.782,-535.092 797.595,-521.674 810.99,-504.273 821.652,-488.386"/>
<polygon fill="black" stroke="black" points="824.753,-490.038 827.285,-479.75 818.89,-486.213 824.753,-490.038"/>
</g>
<!-- TestResult&#45;&gt;Person -->
<g id="edge33" class="edge"><title>TestResult&#45;&gt;Person</title>
<path fill="none" stroke="black" d="M629.598,-583.552C617.024,-570.612 603.425,-553.535 596.782,-535.092 572.43,-467.49 582.617,-385.203 596.088,-326.403"/>
<polygon fill="black" stroke="black" points="599.549,-326.98 598.453,-316.442 592.738,-325.363 599.549,-326.98"/>
</g>
</g>
</svg>
