<?xml version="1.0" encoding="UTF-8" standalone="no"?>
<!DOCTYPE svg PUBLIC "-//W3C//DTD SVG 1.1//EN"
 "http://www.w3.org/Graphics/SVG/1.1/DTD/svg11.dtd">
<!-- Generated by graphviz version 2.38.0 (20140413.2041)
 -->
<!-- Title: %3 Pages: 1 -->
<svg width="1631pt" height="675pt"
 viewBox="0.00 0.00 1631.04 675.26" xmlns="http://www.w3.org/2000/svg" xmlns:xlink="http://www.w3.org/1999/xlink">
<g id="graph0" class="graph" transform="scale(1 1) rotate(0) translate(4 671.259)">
<title>%3</title>
<polygon fill="white" stroke="none" points="-4,4 -4,-671.259 1627.04,-671.259 1627.04,4 -4,4"/>
<!-- AuthInfo -->
<g id="node1" class="node"><title>AuthInfo</title>
<ellipse fill="none" stroke="black" cx="754.338" cy="-455.189" rx="115.931" ry="101.233"/>
<text text-anchor="middle" x="754.338" y="-511.489" font-family="Times New Roman,serif" font-size="14.00">AuthInfo</text>
<text text-anchor="middle" x="754.338" y="-496.489" font-family="Times New Roman,serif" font-size="14.00">attempts: int</text>
<text text-anchor="middle" x="754.338" y="-481.489" font-family="Times New Roman,serif" font-size="14.00">auth_code: char</text>
<text text-anchor="middle" x="754.338" y="-466.489" font-family="Times New Roman,serif" font-size="14.00">is_approved: bool</text>
<text text-anchor="middle" x="754.338" y="-451.489" font-family="Times New Roman,serif" font-size="14.00">last_send_time: timestamp</text>
<text text-anchor="middle" x="754.338" y="-436.489" font-family="Times New Roman,serif" font-size="14.00">password: char</text>
<text text-anchor="middle" x="754.338" y="-421.489" font-family="Times New Roman,serif" font-size="14.00">permissions: int</text>
<text text-anchor="middle" x="754.338" y="-406.489" font-family="Times New Roman,serif" font-size="14.00">phone_no: char</text>
<text text-anchor="middle" x="754.338" y="-391.489" font-family="Times New Roman,serif" font-size="14.00">session_id: char</text>
</g>
<!-- Person -->
<g id="node14" class="node"><title>Person</title>
<ellipse fill="none" stroke="black" cx="591.338" cy="-248.777" rx="89.191" ry="69.0935"/>
<text text-anchor="middle" x="591.338" y="-282.577" font-family="Times New Roman,serif" font-size="14.00">Person</text>
<text text-anchor="middle" x="591.338" y="-267.577" font-family="Times New Roman,serif" font-size="14.00">birth_date: datetime</text>
<text text-anchor="middle" x="591.338" y="-252.577" font-family="Times New Roman,serif" font-size="14.00">first_name: char</text>
<text text-anchor="middle" x="591.338" y="-237.577" font-family="Times New Roman,serif" font-size="14.00">middle_name: char</text>
<text text-anchor="middle" x="591.338" y="-222.577" font-family="Times New Roman,serif" font-size="14.00">phone_no: char</text>
<text text-anchor="middle" x="591.338" y="-207.577" font-family="Times New Roman,serif" font-size="14.00">surname: char</text>
</g>
<!-- AuthInfo&#45;&gt;Person -->
<g id="edge1" class="edge"><title>AuthInfo&#45;&gt;Person</title>
<path fill="none" stroke="black" d="M688.51,-371.636C673.798,-353.187 658.379,-333.85 644.268,-316.154"/>
<polygon fill="black" stroke="black" points="646.855,-313.784 637.884,-308.148 641.382,-318.149 646.855,-313.784"/>
</g>
<!-- Department -->
<g id="node2" class="node"><title>Department</title>
<ellipse fill="none" stroke="black" cx="727.338" cy="-116.61" rx="57.0522" ry="26.7407"/>
<text text-anchor="middle" x="727.338" y="-120.41" font-family="Times New Roman,serif" font-size="14.00">Department</text>
<text text-anchor="middle" x="727.338" y="-105.41" font-family="Times New Roman,serif" font-size="14.00">name: char</text>
</g>
<!-- Organization -->
<g id="node13" class="node"><title>Organization</title>
<ellipse fill="none" stroke="black" cx="727.338" cy="-26.8701" rx="61.5366" ry="26.7407"/>
<text text-anchor="middle" x="727.338" y="-30.6701" font-family="Times New Roman,serif" font-size="14.00">Organization</text>
<text text-anchor="middle" x="727.338" y="-15.6701" font-family="Times New Roman,serif" font-size="14.00">name: char</text>
</g>
<!-- Department&#45;&gt;Organization -->
<g id="edge2" class="edge"><title>Department&#45;&gt;Organization</title>
<path fill="none" stroke="black" d="M727.338,-89.2852C727.338,-81.3185 727.338,-72.4275 727.338,-63.9391"/>
<polygon fill="black" stroke="black" points="730.838,-63.874 727.338,-53.874 723.838,-63.8741 730.838,-63.874"/>
</g>
<!-- Group -->
<g id="node3" class="node"><title>Group</title>
<ellipse fill="none" stroke="black" cx="1253.34" cy="-248.777" rx="54.3945" ry="26.7407"/>
<text text-anchor="middle" x="1253.34" y="-252.577" font-family="Times New Roman,serif" font-size="14.00">Group</text>
<text text-anchor="middle" x="1253.34" y="-237.577" font-family="Times New Roman,serif" font-size="14.00">name: char</text>
</g>
<!-- Group&#45;&gt;Department -->
<g id="edge3" class="edge"><title>Group&#45;&gt;Department</title>
<path fill="none" stroke="black" d="M1205.26,-235.88C1108.96,-212.047 892.595,-158.506 787.249,-132.436"/>
<polygon fill="black" stroke="black" points="787.957,-129.006 777.409,-130.001 786.275,-135.801 787.957,-129.006"/>
</g>
<!-- GroupRole -->
<g id="node8" class="node"><title>GroupRole</title>
<ellipse fill="none" stroke="black" cx="1396.34" cy="-116.61" rx="56.6372" ry="26.7407"/>
<text text-anchor="middle" x="1396.34" y="-120.41" font-family="Times New Roman,serif" font-size="14.00">GroupRole</text>
<text text-anchor="middle" x="1396.34" y="-105.41" font-family="Times New Roman,serif" font-size="14.00">name: char</text>
</g>
<!-- Group&#45;&gt;GroupRole -->
<g id="edge4" class="edge"><title>Group&#45;&gt;GroupRole</title>
<path fill="none" stroke="black" d="M1278.57,-224.805C1302.12,-203.375 1337.39,-171.27 1363.19,-147.781"/>
<polygon fill="black" stroke="black" points="1365.83,-150.11 1370.87,-140.79 1361.12,-144.933 1365.83,-150.11"/>
</g>
<!-- GroupMember -->
<g id="node4" class="node"><title>GroupMember</title>
<ellipse fill="none" stroke="black" cx="1540.34" cy="-455.189" rx="70.922" ry="26.7407"/>
<text text-anchor="middle" x="1540.34" y="-458.989" font-family="Times New Roman,serif" font-size="14.00">GroupMember</text>
<text text-anchor="middle" x="1540.34" y="-443.989" font-family="Times New Roman,serif" font-size="14.00">is_active: bool</text>
</g>
<!-- GroupMember&#45;&gt;Group -->
<g id="edge5" class="edge"><title>GroupMember&#45;&gt;Group</title>
<path fill="none" stroke="black" d="M1526.14,-428.764C1512.2,-406.032 1488.89,-373.408 1460.34,-354.073 1414.58,-323.093 1390.43,-343.436 1341.34,-318.073 1321.59,-307.868 1301.83,-293.056 1286.05,-279.832"/>
<polygon fill="black" stroke="black" points="1288.06,-276.942 1278.19,-273.095 1283.5,-282.259 1288.06,-276.942"/>
</g>
<!-- GroupPermission -->
<g id="node6" class="node"><title>GroupPermission</title>
<ellipse fill="none" stroke="black" cx="1431.34" cy="-248.777" rx="81.135" ry="26.7407"/>
<text text-anchor="middle" x="1431.34" y="-252.577" font-family="Times New Roman,serif" font-size="14.00">GroupPermission</text>
<text text-anchor="middle" x="1431.34" y="-237.577" font-family="Times New Roman,serif" font-size="14.00">name: char</text>
</g>
<!-- GroupMember&#45;&gt;GroupPermission -->
<g id="edge6" class="edge"><title>GroupMember&#45;&gt;GroupPermission</title>
<path fill="none" stroke="black" d="M1526.75,-428.714C1507.38,-392.374 1471.73,-325.535 1449.92,-284.633"/>
<polygon fill="black" stroke="black" points="1452.89,-282.751 1445.09,-275.573 1446.71,-286.044 1452.89,-282.751"/>
</g>
<!-- GroupMember&#45;&gt;GroupRole -->
<g id="edge8" class="edge"><title>GroupMember&#45;&gt;GroupRole</title>
<path fill="none" stroke="black" d="M1546.45,-428.024C1557.08,-375.783 1573.21,-256.936 1521.34,-179.48 1506.17,-156.835 1480.18,-142.142 1455.81,-132.787"/>
<polygon fill="black" stroke="black" points="1456.81,-129.429 1446.22,-129.337 1454.44,-136.016 1456.81,-129.429"/>
</g>
<!-- GroupMember&#45;&gt;Person -->
<g id="edge7" class="edge"><title>GroupMember&#45;&gt;Person</title>
<path fill="none" stroke="black" d="M1527.39,-428.476C1514.03,-404.871 1490.86,-371.066 1460.34,-354.073 1451.96,-349.407 915.64,-287.155 689.837,-261.11"/>
<polygon fill="black" stroke="black" points="689.984,-257.604 679.649,-259.935 689.182,-264.558 689.984,-257.604"/>
</g>
<!-- GroupMemberReview -->
<g id="node5" class="node"><title>GroupMemberReview</title>
<ellipse fill="none" stroke="black" cx="1523.34" cy="-629.782" rx="99.9045" ry="37.4533"/>
<text text-anchor="middle" x="1523.34" y="-641.082" font-family="Times New Roman,serif" font-size="14.00">GroupMemberReview</text>
<text text-anchor="middle" x="1523.34" y="-626.082" font-family="Times New Roman,serif" font-size="14.00">description: char</text>
<text text-anchor="middle" x="1523.34" y="-611.082" font-family="Times New Roman,serif" font-size="14.00">value: float</text>
</g>
<!-- GroupMemberReview&#45;&gt;GroupMember -->
<g id="edge10" class="edge"><title>GroupMemberReview&#45;&gt;GroupMember</title>
<path fill="none" stroke="black" d="M1526.94,-592.18C1529.84,-562.745 1533.89,-521.609 1536.78,-492.304"/>
<polygon fill="black" stroke="black" points="1540.29,-492.382 1537.79,-482.087 1533.32,-491.695 1540.29,-492.382"/>
</g>
<!-- GroupMemberReview&#45;&gt;Person -->
<g id="edge9" class="edge"><title>GroupMemberReview&#45;&gt;Person</title>
<path fill="none" stroke="black" d="M1449.31,-604.676C1432.38,-599.915 1414.36,-595.43 1397.34,-592.306 1348.87,-583.41 992.108,-589.106 955.338,-556.306 886.966,-495.315 976.255,-422.511 915.338,-354.073 858.677,-290.416 763.031,-265.382 690.306,-255.656"/>
<polygon fill="black" stroke="black" points="690.562,-252.161 680.203,-254.383 689.687,-259.106 690.562,-252.161"/>
</g>
<!-- GroupReview -->
<g id="node7" class="node"><title>GroupReview</title>
<ellipse fill="none" stroke="black" cx="1042.34" cy="-455.189" rx="77.5641" ry="37.4533"/>
<text text-anchor="middle" x="1042.34" y="-466.489" font-family="Times New Roman,serif" font-size="14.00">GroupReview</text>
<text text-anchor="middle" x="1042.34" y="-451.489" font-family="Times New Roman,serif" font-size="14.00">description: char</text>
<text text-anchor="middle" x="1042.34" y="-436.489" font-family="Times New Roman,serif" font-size="14.00">value: float</text>
</g>
<!-- GroupReview&#45;&gt;Group -->
<g id="edge12" class="edge"><title>GroupReview&#45;&gt;Group</title>
<path fill="none" stroke="black" d="M1069.67,-419.574C1085.95,-399.692 1107.45,-374.663 1128.34,-354.073 1156.31,-326.501 1190.74,-298.132 1216.39,-277.954"/>
<polygon fill="black" stroke="black" points="1218.66,-280.619 1224.38,-271.702 1214.35,-275.104 1218.66,-280.619"/>
</g>
<!-- GroupReview&#45;&gt;Person -->
<g id="edge11" class="edge"><title>GroupReview&#45;&gt;Person</title>
<path fill="none" stroke="black" d="M1018.26,-419.491C1001.52,-397.793 977.419,-370.87 950.338,-354.073 869.972,-304.226 764.79,-277.335 689.076,-263.416"/>
<polygon fill="black" stroke="black" points="689.522,-259.94 679.061,-261.618 688.285,-266.83 689.522,-259.94"/>
</g>
<!-- GroupTest -->
<g id="node9" class="node"><title>GroupTest</title>
<ellipse fill="none" stroke="black" cx="1396.34" cy="-455.189" rx="55.3091" ry="37.4533"/>
<text text-anchor="middle" x="1396.34" y="-466.489" font-family="Times New Roman,serif" font-size="14.00">GroupTest</text>
<text text-anchor="middle" x="1396.34" y="-451.489" font-family="Times New Roman,serif" font-size="14.00">info: char</text>
<text text-anchor="middle" x="1396.34" y="-436.489" font-family="Times New Roman,serif" font-size="14.00">name: char</text>
</g>
<!-- GroupTest&#45;&gt;Group -->
<g id="edge13" class="edge"><title>GroupTest&#45;&gt;Group</title>
<path fill="none" stroke="black" d="M1375.66,-420.38C1363.43,-400.768 1347.43,-375.739 1332.34,-354.073 1315.22,-329.502 1294.78,-302.578 1278.98,-282.241"/>
<polygon fill="black" stroke="black" points="1281.65,-279.967 1272.74,-274.234 1276.13,-284.272 1281.65,-279.967"/>
</g>
<!-- GroupTestReview -->
<g id="node10" class="node"><title>GroupTestReview</title>
<ellipse fill="none" stroke="black" cx="1304.34" cy="-629.782" rx="84.2917" ry="37.4533"/>
<text text-anchor="middle" x="1304.34" y="-641.082" font-family="Times New Roman,serif" font-size="14.00">GroupTestReview</text>
<text text-anchor="middle" x="1304.34" y="-626.082" font-family="Times New Roman,serif" font-size="14.00">description: char</text>
<text text-anchor="middle" x="1304.34" y="-611.082" font-family="Times New Roman,serif" font-size="14.00">value: float</text>
</g>
<!-- GroupTestReview&#45;&gt;GroupTest -->
<g id="edge15" class="edge"><title>GroupTestReview&#45;&gt;GroupTest</title>
<path fill="none" stroke="black" d="M1323.4,-593.021C1337.84,-565.936 1357.74,-528.597 1373.11,-499.765"/>
<polygon fill="black" stroke="black" points="1376.31,-501.198 1377.93,-490.727 1370.14,-497.905 1376.31,-501.198"/>
</g>
<!-- GroupTestReview&#45;&gt;Person -->
<g id="edge14" class="edge"><title>GroupTestReview&#45;&gt;Person</title>
<path fill="none" stroke="black" d="M1236.56,-607.424C1217.54,-601.947 1196.75,-596.442 1177.34,-592.306 1121.37,-580.378 964.182,-595.347 922.338,-556.306 855.151,-493.618 939.682,-423.373 879.338,-354.073 831.605,-299.256 752.739,-273.243 689.595,-260.902"/>
<polygon fill="black" stroke="black" points="690.076,-257.432 679.603,-259.037 688.791,-264.313 690.076,-257.432"/>
</g>
<!-- HSReview -->
<g id="node11" class="node"><title>HSReview</title>
<ellipse fill="none" stroke="black" cx="524.338" cy="-629.782" rx="77.5641" ry="37.4533"/>
<text text-anchor="middle" x="524.338" y="-641.082" font-family="Times New Roman,serif" font-size="14.00">HSReview</text>
<text text-anchor="middle" x="524.338" y="-626.082" font-family="Times New Roman,serif" font-size="14.00">description: char</text>
<text text-anchor="middle" x="524.338" y="-611.082" font-family="Times New Roman,serif" font-size="14.00">value: float</text>
</g>
<!-- HSReview&#45;&gt;Person -->
<g id="edge16" class="edge"><title>HSReview&#45;&gt;Person</title>
<path fill="none" stroke="black" d="M526.739,-591.985C530.686,-538.938 540.003,-438.118 558.338,-354.073 560.366,-344.777 562.864,-335.126 565.57,-325.613"/>
<polygon fill="black" stroke="black" points="569.001,-326.353 568.455,-315.772 562.284,-324.383 569.001,-326.353"/>
</g>
<!-- PersonHS -->
<g id="node15" class="node"><title>PersonHS</title>
<ellipse fill="none" stroke="black" cx="454.338" cy="-455.189" rx="52.1524" ry="26.7407"/>
<text text-anchor="middle" x="454.338" y="-458.989" font-family="Times New Roman,serif" font-size="14.00">PersonHS</text>
<text text-anchor="middle" x="454.338" y="-443.989" font-family="Times New Roman,serif" font-size="14.00">level: float</text>
</g>
<!-- HSReview&#45;&gt;PersonHS -->
<g id="edge17" class="edge"><title>HSReview&#45;&gt;PersonHS</title>
<path fill="none" stroke="black" d="M509.664,-592.601C497.562,-562.762 480.498,-520.688 468.53,-491.18"/>
<polygon fill="black" stroke="black" points="471.683,-489.642 464.681,-481.691 465.196,-492.273 471.683,-489.642"/>
</g>
<!-- HardSkill -->
<g id="node12" class="node"><title>HardSkill</title>
<ellipse fill="none" stroke="black" cx="429.338" cy="-248.777" rx="54.3945" ry="26.7407"/>
<text text-anchor="middle" x="429.338" y="-252.577" font-family="Times New Roman,serif" font-size="14.00">HardSkill</text>
<text text-anchor="middle" x="429.338" y="-237.577" font-family="Times New Roman,serif" font-size="14.00">name: char</text>
</g>
<!-- PersonHS&#45;&gt;HardSkill -->
<g id="edge18" class="edge"><title>PersonHS&#45;&gt;HardSkill</title>
<path fill="none" stroke="black" d="M451.172,-428.3C446.76,-392.228 438.745,-326.689 433.749,-285.846"/>
<polygon fill="black" stroke="black" points="437.206,-285.279 432.518,-275.778 430.258,-286.129 437.206,-285.279"/>
</g>
<!-- PersonHS&#45;&gt;Person -->
<g id="edge19" class="edge"><title>PersonHS&#45;&gt;Person</title>
<path fill="none" stroke="black" d="M470.51,-429.436C483.81,-409.133 503.189,-379.671 520.338,-354.073 527.99,-342.651 536.158,-330.56 544.129,-318.815"/>
<polygon fill="black" stroke="black" points="547.163,-320.578 549.888,-310.339 541.373,-316.644 547.163,-320.578"/>
</g>
<!-- PersonSS -->
<g id="node16" class="node"><title>PersonSS</title>
<ellipse fill="none" stroke="black" cx="256.338" cy="-455.189" rx="51.7379" ry="26.7407"/>
<text text-anchor="middle" x="256.338" y="-458.989" font-family="Times New Roman,serif" font-size="14.00">PersonSS</text>
<text text-anchor="middle" x="256.338" y="-443.989" font-family="Times New Roman,serif" font-size="14.00">level: float</text>
</g>
<!-- PersonSS&#45;&gt;Person -->
<g id="edge20" class="edge"><title>PersonSS&#45;&gt;Person</title>
<path fill="none" stroke="black" d="M266.399,-428.668C276.865,-405.541 295.503,-372.366 322.338,-354.073 386.153,-310.572 421.394,-348.595 492.338,-318.073 501.713,-314.04 511.118,-309.057 520.198,-303.634"/>
<polygon fill="black" stroke="black" points="522.131,-306.554 528.793,-298.316 518.448,-300.601 522.131,-306.554"/>
</g>
<!-- SoftSkill -->
<g id="node19" class="node"><title>SoftSkill</title>
<ellipse fill="none" stroke="black" cx="279.338" cy="-248.777" rx="54.3945" ry="26.7407"/>
<text text-anchor="middle" x="279.338" y="-252.577" font-family="Times New Roman,serif" font-size="14.00">SoftSkill</text>
<text text-anchor="middle" x="279.338" y="-237.577" font-family="Times New Roman,serif" font-size="14.00">name: char</text>
</g>
<!-- PersonSS&#45;&gt;SoftSkill -->
<g id="edge21" class="edge"><title>PersonSS&#45;&gt;SoftSkill</title>
<path fill="none" stroke="black" d="M259.251,-428.3C263.31,-392.228 270.684,-326.689 275.28,-285.846"/>
<polygon fill="black" stroke="black" points="278.772,-286.106 276.413,-275.778 271.816,-285.323 278.772,-286.106"/>
</g>
<!-- PersonSpecialization -->
<g id="node17" class="node"><title>PersonSpecialization</title>
<ellipse fill="none" stroke="black" cx="93.3381" cy="-455.189" rx="93.1765" ry="48.1667"/>
<text text-anchor="middle" x="93.3381" y="-473.989" font-family="Times New Roman,serif" font-size="14.00">PersonSpecialization</text>
<text text-anchor="middle" x="93.3381" y="-458.989" font-family="Times New Roman,serif" font-size="14.00">details: dict</text>
<text text-anchor="middle" x="93.3381" y="-443.989" font-family="Times New Roman,serif" font-size="14.00">is_active: bool</text>
<text text-anchor="middle" x="93.3381" y="-428.989" font-family="Times New Roman,serif" font-size="14.00">level: float</text>
</g>
<!-- PersonSpecialization&#45;&gt;Department -->
<g id="edge22" class="edge"><title>PersonSpecialization&#45;&gt;Department</title>
<path fill="none" stroke="black" d="M70.323,-408.486C43.5077,-347.994 9.62596,-241.749 66.3381,-179.48 105.781,-136.173 499.392,-122.632 659.819,-118.891"/>
<polygon fill="black" stroke="black" points="660.124,-122.385 670.042,-118.659 659.965,-115.387 660.124,-122.385"/>
</g>
<!-- PersonSpecialization&#45;&gt;Person -->
<g id="edge23" class="edge"><title>PersonSpecialization&#45;&gt;Person</title>
<path fill="none" stroke="black" d="M126.62,-410.115C144.617,-389.595 168.617,-366.927 195.338,-354.073 315.162,-296.435 368.002,-365.194 492.338,-318.073 502.03,-314.4 511.685,-309.584 520.954,-304.206"/>
<polygon fill="black" stroke="black" points="522.974,-307.074 529.71,-298.896 519.345,-301.088 522.974,-307.074"/>
</g>
<!-- Specialization -->
<g id="node20" class="node"><title>Specialization</title>
<ellipse fill="none" stroke="black" cx="141.338" cy="-248.777" rx="65.5227" ry="37.4533"/>
<text text-anchor="middle" x="141.338" y="-260.077" font-family="Times New Roman,serif" font-size="14.00">Specialization</text>
<text text-anchor="middle" x="141.338" y="-245.077" font-family="Times New Roman,serif" font-size="14.00">detail: char</text>
<text text-anchor="middle" x="141.338" y="-230.077" font-family="Times New Roman,serif" font-size="14.00">type: char</text>
</g>
<!-- PersonSpecialization&#45;&gt;Specialization -->
<g id="edge24" class="edge"><title>PersonSpecialization&#45;&gt;Specialization</title>
<path fill="none" stroke="black" d="M104.35,-407.293C112.201,-373.858 122.706,-329.123 130.514,-295.871"/>
<polygon fill="black" stroke="black" points="133.966,-296.481 132.845,-285.946 127.152,-294.881 133.966,-296.481"/>
</g>
<!-- SSReview -->
<g id="node18" class="node"><title>SSReview</title>
<ellipse fill="none" stroke="black" cx="341.338" cy="-629.782" rx="77.5641" ry="37.4533"/>
<text text-anchor="middle" x="341.338" y="-641.082" font-family="Times New Roman,serif" font-size="14.00">SSReview</text>
<text text-anchor="middle" x="341.338" y="-626.082" font-family="Times New Roman,serif" font-size="14.00">description: char</text>
<text text-anchor="middle" x="341.338" y="-611.082" font-family="Times New Roman,serif" font-size="14.00">value: float</text>
</g>
<!-- SSReview&#45;&gt;Person -->
<g id="edge25" class="edge"><title>SSReview&#45;&gt;Person</title>
<path fill="none" stroke="black" d="M346.215,-592.223C355.92,-521.671 378.031,-372.079 393.338,-354.073 423.662,-318.402 450.731,-339.541 492.338,-318.073 501.176,-313.513 510.151,-308.287 518.908,-302.799"/>
<polygon fill="black" stroke="black" points="521.049,-305.583 527.578,-297.239 517.271,-299.691 521.049,-305.583"/>
</g>
<!-- SSReview&#45;&gt;PersonSS -->
<g id="edge26" class="edge"><title>SSReview&#45;&gt;PersonSS</title>
<path fill="none" stroke="black" d="M323.726,-593.021C308.895,-562.907 287.821,-520.116 273.205,-490.437"/>
<polygon fill="black" stroke="black" points="276.26,-488.719 268.702,-481.295 269.98,-491.812 276.26,-488.719"/>
</g>
<!-- SpecializationReview -->
<g id="node21" class="node"><title>SpecializationReview</title>
<ellipse fill="none" stroke="black" cx="131.338" cy="-629.782" rx="94.5053" ry="37.4533"/>
<text text-anchor="middle" x="131.338" y="-641.082" font-family="Times New Roman,serif" font-size="14.00">SpecializationReview</text>
<text text-anchor="middle" x="131.338" y="-626.082" font-family="Times New Roman,serif" font-size="14.00">description: char</text>
<text text-anchor="middle" x="131.338" y="-611.082" font-family="Times New Roman,serif" font-size="14.00">value: float</text>
</g>
<!-- SpecializationReview&#45;&gt;Person -->
<g id="edge27" class="edge"><title>SpecializationReview&#45;&gt;Person</title>
<path fill="none" stroke="black" d="M207.85,-607.387C252.452,-593.365 302.729,-574.354 317.338,-556.306 374.637,-485.521 288.788,-421.194 350.338,-354.073 394.342,-306.087 433.052,-344.983 492.338,-318.073 501.56,-313.887 510.841,-308.836 519.827,-303.398"/>
<polygon fill="black" stroke="black" points="521.713,-306.347 528.342,-298.081 518.006,-300.409 521.713,-306.347"/>
</g>
<!-- SpecializationReview&#45;&gt;PersonSpecialization -->
<g id="edge28" class="edge"><title>SpecializationReview&#45;&gt;PersonSpecialization</title>
<path fill="none" stroke="black" d="M123.279,-592.18C118.24,-569.293 111.644,-539.331 105.925,-513.358"/>
<polygon fill="black" stroke="black" points="109.268,-512.265 103.7,-503.251 102.432,-513.77 109.268,-512.265"/>
</g>
<!-- Survey -->
<g id="node22" class="node"><title>Survey</title>
<ellipse fill="none" stroke="black" cx="1230.34" cy="-455.189" rx="92.7622" ry="48.1667"/>
<text text-anchor="middle" x="1230.34" y="-473.989" font-family="Times New Roman,serif" font-size="14.00">Survey</text>
<text text-anchor="middle" x="1230.34" y="-458.989" font-family="Times New Roman,serif" font-size="14.00">description: char</text>
<text text-anchor="middle" x="1230.34" y="-443.989" font-family="Times New Roman,serif" font-size="14.00">survey_options: dict</text>
<text text-anchor="middle" x="1230.34" y="-428.989" font-family="Times New Roman,serif" font-size="14.00">survey_result: dict</text>
</g>
<!-- Survey&#45;&gt;Group -->
<g id="edge29" class="edge"><title>Survey&#45;&gt;Group</title>
<path fill="none" stroke="black" d="M1235.64,-407.036C1239.79,-370.225 1245.46,-319.832 1249.25,-286.11"/>
<polygon fill="black" stroke="black" points="1252.77,-286.114 1250.41,-275.785 1245.82,-285.331 1252.77,-286.114"/>
</g>
<!-- SurveyResponse -->
<g id="node23" class="node"><title>SurveyResponse</title>
<ellipse fill="none" stroke="black" cx="848.338" cy="-629.782" rx="92.7622" ry="26.7407"/>
<text text-anchor="middle" x="848.338" y="-633.582" font-family="Times New Roman,serif" font-size="14.00">SurveyResponse</text>
<text text-anchor="middle" x="848.338" y="-618.582" font-family="Times New Roman,serif" font-size="14.00">chosen_option: char</text>
</g>
<!-- SurveyResponse&#45;&gt;Person -->
<g id="edge30" class="edge"><title>SurveyResponse&#45;&gt;Person</title>
<path fill="none" stroke="black" d="M768.098,-616.276C702.548,-604.242 617.408,-583.82 596.338,-556.306 569.975,-521.88 575.145,-407.105 582.388,-328.205"/>
<polygon fill="black" stroke="black" points="585.914,-328.091 583.373,-317.805 578.946,-327.431 585.914,-328.091"/>
</g>
<!-- SurveyResponse&#45;&gt;Survey -->
<g id="edge31" class="edge"><title>SurveyResponse&#45;&gt;Survey</title>
<path fill="none" stroke="black" d="M919.635,-612.442C996.7,-594.457 1111.02,-566.713 1129.34,-556.306 1151.41,-543.765 1172.04,-525.15 1188.83,-507.361"/>
<polygon fill="black" stroke="black" points="1191.59,-509.536 1195.79,-499.809 1186.44,-504.795 1191.59,-509.536"/>
</g>
<!-- TestResult -->
<g id="node24" class="node"><title>TestResult</title>
<ellipse fill="none" stroke="black" cx="1097.34" cy="-629.782" rx="70.922" ry="26.7407"/>
<text text-anchor="middle" x="1097.34" y="-633.582" font-family="Times New Roman,serif" font-size="14.00">TestResult</text>
<text text-anchor="middle" x="1097.34" y="-618.582" font-family="Times New Roman,serif" font-size="14.00">result_data: list</text>
</g>
<!-- TestResult&#45;&gt;GroupTest -->
<g id="edge33" class="edge"><title>TestResult&#45;&gt;GroupTest</title>
<path fill="none" stroke="black" d="M1150.05,-611.668C1169.31,-605.48 1191.28,-598.497 1211.34,-592.306 1264.95,-575.755 1287.52,-590.064 1332.34,-556.306 1351.4,-541.947 1366.3,-520.123 1376.91,-500.511"/>
<polygon fill="black" stroke="black" points="1380.14,-501.888 1381.63,-491.398 1373.92,-498.67 1380.14,-501.888"/>
</g>
<!-- TestResult&#45;&gt;Person -->
<g id="edge32" class="edge"><title>TestResult&#45;&gt;Person</title>
<path fill="none" stroke="black" d="M1041.52,-613.094C1014.21,-605.892 980.749,-597.76 950.338,-592.306 879.685,-579.635 680.39,-606.766 629.338,-556.306 613.35,-540.503 602.003,-413.888 596.077,-328.408"/>
<polygon fill="black" stroke="black" points="599.553,-327.937 595.381,-318.198 592.569,-328.413 599.553,-327.937"/>
</g>
</g>
</svg>
