<?xml version="1.0" encoding="UTF-8" standalone="no"?>
<!DOCTYPE svg PUBLIC "-//W3C//DTD SVG 1.1//EN"
 "http://www.w3.org/Graphics/SVG/1.1/DTD/svg11.dtd">
<!-- Generated by graphviz version 2.38.0 (20140413.2041)
 -->
<!-- Title: %3 Pages: 1 -->
<svg width="1642pt" height="696pt"
 viewBox="0.00 0.00 1642.04 696.47" xmlns="http://www.w3.org/2000/svg" xmlns:xlink="http://www.w3.org/1999/xlink">
<g id="graph0" class="graph" transform="scale(1 1) rotate(0) translate(4 692.472)">
<title>%3</title>
<polygon fill="white" stroke="none" points="-4,4 -4,-692.472 1638.04,-692.472 1638.04,4 -4,4"/>
<!-- AuthInfo -->
<g id="node1" class="node"><title>AuthInfo</title>
<ellipse fill="none" stroke="black" cx="754.338" cy="-476.403" rx="115.931" ry="101.233"/>
<text text-anchor="middle" x="754.338" y="-532.703" font-family="Times New Roman,serif" font-size="14.00">AuthInfo</text>
<text text-anchor="middle" x="754.338" y="-517.703" font-family="Times New Roman,serif" font-size="14.00">attempts: int</text>
<text text-anchor="middle" x="754.338" y="-502.703" font-family="Times New Roman,serif" font-size="14.00">auth_code: char?</text>
<text text-anchor="middle" x="754.338" y="-487.703" font-family="Times New Roman,serif" font-size="14.00">is_approved: bool</text>
<text text-anchor="middle" x="754.338" y="-472.703" font-family="Times New Roman,serif" font-size="14.00">last_send_time: timestamp</text>
<text text-anchor="middle" x="754.338" y="-457.703" font-family="Times New Roman,serif" font-size="14.00">password: char?</text>
<text text-anchor="middle" x="754.338" y="-442.703" font-family="Times New Roman,serif" font-size="14.00">permissions: int</text>
<text text-anchor="middle" x="754.338" y="-427.703" font-family="Times New Roman,serif" font-size="14.00">phone_no: char</text>
<text text-anchor="middle" x="754.338" y="-412.703" font-family="Times New Roman,serif" font-size="14.00">session_id: char?</text>
</g>
<!-- Person -->
<g id="node14" class="node"><title>Person</title>
<ellipse fill="none" stroke="black" cx="591.338" cy="-259.383" rx="89.191" ry="79.8062"/>
<text text-anchor="middle" x="591.338" y="-300.683" font-family="Times New Roman,serif" font-size="14.00">Person</text>
<text text-anchor="middle" x="591.338" y="-285.683" font-family="Times New Roman,serif" font-size="14.00">birth_date: datetime</text>
<text text-anchor="middle" x="591.338" y="-270.683" font-family="Times New Roman,serif" font-size="14.00">first_name: char</text>
<text text-anchor="middle" x="591.338" y="-255.683" font-family="Times New Roman,serif" font-size="14.00">middle_name: char</text>
<text text-anchor="middle" x="591.338" y="-240.683" font-family="Times New Roman,serif" font-size="14.00">phone_no: char</text>
<text text-anchor="middle" x="591.338" y="-225.683" font-family="Times New Roman,serif" font-size="14.00">photo: binary</text>
<text text-anchor="middle" x="591.338" y="-210.683" font-family="Times New Roman,serif" font-size="14.00">surname: char</text>
</g>
<!-- AuthInfo&#45;&gt;Person -->
<g id="edge1" class="edge"><title>AuthInfo&#45;&gt;Person</title>
<path fill="none" stroke="black" d="M690.851,-391.655C676.51,-372.737 661.386,-352.787 647.378,-334.307"/>
<polygon fill="black" stroke="black" points="649.857,-331.784 641.027,-325.93 644.279,-336.013 649.857,-331.784"/>
</g>
<!-- Department -->
<g id="node2" class="node"><title>Department</title>
<ellipse fill="none" stroke="black" cx="734.338" cy="-116.61" rx="57.0522" ry="26.7407"/>
<text text-anchor="middle" x="734.338" y="-120.41" font-family="Times New Roman,serif" font-size="14.00">Department</text>
<text text-anchor="middle" x="734.338" y="-105.41" font-family="Times New Roman,serif" font-size="14.00">name: char</text>
</g>
<!-- Organization -->
<g id="node13" class="node"><title>Organization</title>
<ellipse fill="none" stroke="black" cx="734.338" cy="-26.8701" rx="61.5366" ry="26.7407"/>
<text text-anchor="middle" x="734.338" y="-30.6701" font-family="Times New Roman,serif" font-size="14.00">Organization</text>
<text text-anchor="middle" x="734.338" y="-15.6701" font-family="Times New Roman,serif" font-size="14.00">name: char</text>
</g>
<!-- Department&#45;&gt;Organization -->
<g id="edge2" class="edge"><title>Department&#45;&gt;Organization</title>
<path fill="none" stroke="black" d="M734.338,-89.2852C734.338,-81.3185 734.338,-72.4275 734.338,-63.9391"/>
<polygon fill="black" stroke="black" points="737.838,-63.874 734.338,-53.874 730.838,-63.8741 737.838,-63.874"/>
</g>
<!-- Group -->
<g id="node3" class="node"><title>Group</title>
<ellipse fill="none" stroke="black" cx="1262.34" cy="-259.383" rx="54.3945" ry="26.7407"/>
<text text-anchor="middle" x="1262.34" y="-263.183" font-family="Times New Roman,serif" font-size="14.00">Group</text>
<text text-anchor="middle" x="1262.34" y="-248.183" font-family="Times New Roman,serif" font-size="14.00">name: char</text>
</g>
<!-- Group&#45;&gt;Department -->
<g id="edge3" class="edge"><title>Group&#45;&gt;Department</title>
<path fill="none" stroke="black" d="M1215.02,-245.767C1118.4,-220.008 898.702,-161.432 793.126,-133.284"/>
<polygon fill="black" stroke="black" points="793.837,-129.851 783.273,-130.657 792.034,-136.615 793.837,-129.851"/>
</g>
<!-- GroupRole -->
<g id="node8" class="node"><title>GroupRole</title>
<ellipse fill="none" stroke="black" cx="1407.34" cy="-116.61" rx="56.6372" ry="26.7407"/>
<text text-anchor="middle" x="1407.34" y="-120.41" font-family="Times New Roman,serif" font-size="14.00">GroupRole</text>
<text text-anchor="middle" x="1407.34" y="-105.41" font-family="Times New Roman,serif" font-size="14.00">name: char</text>
</g>
<!-- Group&#45;&gt;GroupRole -->
<g id="edge4" class="edge"><title>Group&#45;&gt;GroupRole</title>
<path fill="none" stroke="black" d="M1286.28,-235.137C1310.69,-211.439 1348.69,-174.545 1375.6,-148.423"/>
<polygon fill="black" stroke="black" points="1378.14,-150.838 1382.87,-141.361 1373.26,-145.816 1378.14,-150.838"/>
</g>
<!-- GroupMember -->
<g id="node4" class="node"><title>GroupMember</title>
<ellipse fill="none" stroke="black" cx="1552.34" cy="-476.403" rx="73.5782" ry="26.7407"/>
<text text-anchor="middle" x="1552.34" y="-480.203" font-family="Times New Roman,serif" font-size="14.00">GroupMember</text>
<text text-anchor="middle" x="1552.34" y="-465.203" font-family="Times New Roman,serif" font-size="14.00">is_active: bool*</text>
</g>
<!-- GroupMember&#45;&gt;Group -->
<g id="edge5" class="edge"><title>GroupMember&#45;&gt;Group</title>
<path fill="none" stroke="black" d="M1537.36,-450.037C1522.71,-427.346 1498.42,-394.749 1469.34,-375.286 1424.48,-345.264 1400.51,-365.527 1353.34,-339.286 1330.52,-326.593 1308.31,-307.509 1291.54,-291.289"/>
<polygon fill="black" stroke="black" points="1293.81,-288.612 1284.24,-284.071 1288.89,-293.59 1293.81,-288.612"/>
</g>
<!-- GroupPermission -->
<g id="node6" class="node"><title>GroupPermission</title>
<ellipse fill="none" stroke="black" cx="1443.34" cy="-259.383" rx="81.135" ry="26.7407"/>
<text text-anchor="middle" x="1443.34" y="-263.183" font-family="Times New Roman,serif" font-size="14.00">GroupPermission</text>
<text text-anchor="middle" x="1443.34" y="-248.183" font-family="Times New Roman,serif" font-size="14.00">name: char</text>
</g>
<!-- GroupMember&#45;&gt;GroupPermission -->
<g id="edge6" class="edge"><title>GroupMember&#45;&gt;GroupPermission</title>
<path fill="none" stroke="black" d="M1539.41,-449.893C1519.91,-411.443 1482.96,-338.542 1461,-295.226"/>
<polygon fill="black" stroke="black" points="1464.07,-293.531 1456.42,-286.194 1457.82,-296.696 1464.07,-293.531"/>
</g>
<!-- GroupMember&#45;&gt;GroupRole -->
<g id="edge8" class="edge"><title>GroupMember&#45;&gt;GroupRole</title>
<path fill="none" stroke="black" d="M1558.67,-449.349C1570.47,-394.242 1589.84,-264.01 1533.34,-179.48 1518.09,-156.675 1491.9,-141.964 1467.33,-132.637"/>
<polygon fill="black" stroke="black" points="1468.25,-129.251 1457.66,-129.201 1465.91,-135.847 1468.25,-129.251"/>
</g>
<!-- GroupMember&#45;&gt;Person -->
<g id="edge7" class="edge"><title>GroupMember&#45;&gt;Person</title>
<path fill="none" stroke="black" d="M1538.62,-449.751C1524.56,-426.19 1500.37,-392.416 1469.34,-375.286 1467.21,-374.11 918.467,-302.82 689.687,-273.137"/>
<polygon fill="black" stroke="black" points="690.066,-269.657 679.699,-271.841 689.166,-276.599 690.066,-269.657"/>
</g>
<!-- GroupMemberReview -->
<g id="node5" class="node"><title>GroupMemberReview</title>
<ellipse fill="none" stroke="black" cx="1534.34" cy="-650.996" rx="99.9045" ry="37.4533"/>
<text text-anchor="middle" x="1534.34" y="-662.296" font-family="Times New Roman,serif" font-size="14.00">GroupMemberReview</text>
<text text-anchor="middle" x="1534.34" y="-647.296" font-family="Times New Roman,serif" font-size="14.00">description: char</text>
<text text-anchor="middle" x="1534.34" y="-632.296" font-family="Times New Roman,serif" font-size="14.00">value: float</text>
</g>
<!-- GroupMemberReview&#45;&gt;GroupMember -->
<g id="edge10" class="edge"><title>GroupMemberReview&#45;&gt;GroupMember</title>
<path fill="none" stroke="black" d="M1538.16,-613.393C1541.23,-583.958 1545.52,-542.822 1548.57,-513.517"/>
<polygon fill="black" stroke="black" points="1552.08,-513.609 1549.64,-503.3 1545.12,-512.883 1552.08,-513.609"/>
</g>
<!-- GroupMemberReview&#45;&gt;Person -->
<g id="edge9" class="edge"><title>GroupMemberReview&#45;&gt;Person</title>
<path fill="none" stroke="black" d="M1460.31,-625.864C1443.39,-621.104 1425.36,-616.627 1408.34,-613.519 1358.67,-604.452 993.05,-611.093 955.338,-577.519 886.906,-516.595 975.243,-444.612 915.338,-375.286 858.968,-310.053 763.05,-281.853 690.165,-269.663"/>
<polygon fill="black" stroke="black" points="690.466,-266.167 680.04,-268.047 689.363,-273.079 690.466,-266.167"/>
</g>
<!-- GroupReview -->
<g id="node7" class="node"><title>GroupReview</title>
<ellipse fill="none" stroke="black" cx="1042.34" cy="-476.403" rx="77.5641" ry="37.4533"/>
<text text-anchor="middle" x="1042.34" y="-487.703" font-family="Times New Roman,serif" font-size="14.00">GroupReview</text>
<text text-anchor="middle" x="1042.34" y="-472.703" font-family="Times New Roman,serif" font-size="14.00">description: char</text>
<text text-anchor="middle" x="1042.34" y="-457.703" font-family="Times New Roman,serif" font-size="14.00">value: float</text>
</g>
<!-- GroupReview&#45;&gt;Group -->
<g id="edge12" class="edge"><title>GroupReview&#45;&gt;Group</title>
<path fill="none" stroke="black" d="M1070.18,-440.953C1086.72,-421.127 1108.47,-396.098 1129.34,-375.286 1160.61,-344.107 1199.03,-311.461 1226.52,-288.969"/>
<polygon fill="black" stroke="black" points="1228.78,-291.644 1234.32,-282.617 1224.36,-286.215 1228.78,-291.644"/>
</g>
<!-- GroupReview&#45;&gt;Person -->
<g id="edge11" class="edge"><title>GroupReview&#45;&gt;Person</title>
<path fill="none" stroke="black" d="M1017.73,-440.468C1000.95,-418.953 976.991,-392.321 950.338,-375.286 869.861,-323.852 764.463,-293.718 688.715,-277.314"/>
<polygon fill="black" stroke="black" points="689.205,-273.84 678.696,-275.187 687.751,-280.688 689.205,-273.84"/>
</g>
<!-- GroupTest -->
<g id="node9" class="node"><title>GroupTest</title>
<ellipse fill="none" stroke="black" cx="1405.34" cy="-476.403" rx="55.3091" ry="37.4533"/>
<text text-anchor="middle" x="1405.34" y="-487.703" font-family="Times New Roman,serif" font-size="14.00">GroupTest</text>
<text text-anchor="middle" x="1405.34" y="-472.703" font-family="Times New Roman,serif" font-size="14.00">info: char</text>
<text text-anchor="middle" x="1405.34" y="-457.703" font-family="Times New Roman,serif" font-size="14.00">name: char</text>
</g>
<!-- GroupTest&#45;&gt;Group -->
<g id="edge13" class="edge"><title>GroupTest&#45;&gt;Group</title>
<path fill="none" stroke="black" d="M1383.99,-441.391C1371.68,-421.931 1355.82,-397.121 1341.34,-375.286 1322.95,-347.557 1301.54,-316.482 1285.64,-293.648"/>
<polygon fill="black" stroke="black" points="1288.43,-291.526 1279.84,-285.323 1282.69,-295.529 1288.43,-291.526"/>
</g>
<!-- GroupTestReview -->
<g id="node10" class="node"><title>GroupTestReview</title>
<ellipse fill="none" stroke="black" cx="1315.34" cy="-650.996" rx="84.2917" ry="37.4533"/>
<text text-anchor="middle" x="1315.34" y="-662.296" font-family="Times New Roman,serif" font-size="14.00">GroupTestReview</text>
<text text-anchor="middle" x="1315.34" y="-647.296" font-family="Times New Roman,serif" font-size="14.00">description: char</text>
<text text-anchor="middle" x="1315.34" y="-632.296" font-family="Times New Roman,serif" font-size="14.00">value: float</text>
</g>
<!-- GroupTestReview&#45;&gt;GroupTest -->
<g id="edge15" class="edge"><title>GroupTestReview&#45;&gt;GroupTest</title>
<path fill="none" stroke="black" d="M1333.99,-614.234C1348.11,-587.149 1367.58,-549.81 1382.62,-520.979"/>
<polygon fill="black" stroke="black" points="1385.81,-522.426 1387.33,-511.94 1379.6,-519.189 1385.81,-522.426"/>
</g>
<!-- GroupTestReview&#45;&gt;Person -->
<g id="edge14" class="edge"><title>GroupTestReview&#45;&gt;Person</title>
<path fill="none" stroke="black" d="M1247.58,-628.564C1228.55,-623.087 1207.76,-617.599 1188.34,-613.519 1129.96,-601.253 966.068,-618.087 922.338,-577.519 854.972,-515.024 938.56,-445.548 879.338,-375.286 831.833,-318.926 752.755,-289.985 689.469,-275.255"/>
<polygon fill="black" stroke="black" points="689.978,-271.782 679.454,-273.011 688.447,-278.613 689.978,-271.782"/>
</g>
<!-- HSReview -->
<g id="node11" class="node"><title>HSReview</title>
<ellipse fill="none" stroke="black" cx="524.338" cy="-650.996" rx="77.5641" ry="37.4533"/>
<text text-anchor="middle" x="524.338" y="-662.296" font-family="Times New Roman,serif" font-size="14.00">HSReview</text>
<text text-anchor="middle" x="524.338" y="-647.296" font-family="Times New Roman,serif" font-size="14.00">description: char</text>
<text text-anchor="middle" x="524.338" y="-632.296" font-family="Times New Roman,serif" font-size="14.00">value: float</text>
</g>
<!-- HSReview&#45;&gt;Person -->
<g id="edge16" class="edge"><title>HSReview&#45;&gt;Person</title>
<path fill="none" stroke="black" d="M527.045,-613.263C531.363,-560.295 541.13,-459.569 558.338,-375.286 560.269,-365.83 562.587,-356.019 565.088,-346.292"/>
<polygon fill="black" stroke="black" points="568.475,-347.173 567.642,-336.611 561.707,-345.387 568.475,-347.173"/>
</g>
<!-- PersonHS -->
<g id="node15" class="node"><title>PersonHS</title>
<ellipse fill="none" stroke="black" cx="454.338" cy="-476.403" rx="52.1524" ry="26.7407"/>
<text text-anchor="middle" x="454.338" y="-480.203" font-family="Times New Roman,serif" font-size="14.00">PersonHS</text>
<text text-anchor="middle" x="454.338" y="-465.203" font-family="Times New Roman,serif" font-size="14.00">level: float</text>
</g>
<!-- HSReview&#45;&gt;PersonHS -->
<g id="edge17" class="edge"><title>HSReview&#45;&gt;PersonHS</title>
<path fill="none" stroke="black" d="M509.664,-613.814C497.562,-583.975 480.498,-541.902 468.53,-512.394"/>
<polygon fill="black" stroke="black" points="471.683,-510.855 464.681,-502.904 465.196,-513.486 471.683,-510.855"/>
</g>
<!-- HardSkill -->
<g id="node12" class="node"><title>HardSkill</title>
<ellipse fill="none" stroke="black" cx="429.338" cy="-259.383" rx="54.3945" ry="26.7407"/>
<text text-anchor="middle" x="429.338" y="-263.183" font-family="Times New Roman,serif" font-size="14.00">HardSkill</text>
<text text-anchor="middle" x="429.338" y="-248.183" font-family="Times New Roman,serif" font-size="14.00">name: char</text>
</g>
<!-- PersonHS&#45;&gt;HardSkill -->
<g id="edge18" class="edge"><title>PersonHS&#45;&gt;HardSkill</title>
<path fill="none" stroke="black" d="M451.323,-449.466C446.883,-411.287 438.573,-339.81 433.539,-296.512"/>
<polygon fill="black" stroke="black" points="436.996,-295.94 432.364,-286.412 430.043,-296.749 436.996,-295.94"/>
</g>
<!-- PersonHS&#45;&gt;Person -->
<g id="edge19" class="edge"><title>PersonHS&#45;&gt;Person</title>
<path fill="none" stroke="black" d="M470.054,-450.737C487.5,-423.355 516.538,-377.782 541.826,-338.091"/>
<polygon fill="black" stroke="black" points="545.071,-339.512 547.493,-329.198 539.168,-335.75 545.071,-339.512"/>
</g>
<!-- PersonSS -->
<g id="node16" class="node"><title>PersonSS</title>
<ellipse fill="none" stroke="black" cx="256.338" cy="-476.403" rx="51.7379" ry="26.7407"/>
<text text-anchor="middle" x="256.338" y="-480.203" font-family="Times New Roman,serif" font-size="14.00">PersonSS</text>
<text text-anchor="middle" x="256.338" y="-465.203" font-family="Times New Roman,serif" font-size="14.00">level: float</text>
</g>
<!-- PersonSS&#45;&gt;Person -->
<g id="edge20" class="edge"><title>PersonSS&#45;&gt;Person</title>
<path fill="none" stroke="black" d="M266.399,-449.882C276.865,-426.754 295.503,-393.579 322.338,-375.286 386.153,-331.786 422.489,-372.238 492.338,-339.286 502.078,-334.691 511.717,-328.965 520.936,-322.708"/>
<polygon fill="black" stroke="black" points="523.117,-325.452 529.275,-316.83 519.085,-319.731 523.117,-325.452"/>
</g>
<!-- SoftSkill -->
<g id="node19" class="node"><title>SoftSkill</title>
<ellipse fill="none" stroke="black" cx="279.338" cy="-259.383" rx="54.3945" ry="26.7407"/>
<text text-anchor="middle" x="279.338" y="-263.183" font-family="Times New Roman,serif" font-size="14.00">SoftSkill</text>
<text text-anchor="middle" x="279.338" y="-248.183" font-family="Times New Roman,serif" font-size="14.00">name: char</text>
</g>
<!-- PersonSS&#45;&gt;SoftSkill -->
<g id="edge21" class="edge"><title>PersonSS&#45;&gt;SoftSkill</title>
<path fill="none" stroke="black" d="M259.112,-449.466C263.196,-411.287 270.842,-339.81 275.473,-296.512"/>
<polygon fill="black" stroke="black" points="278.97,-296.727 276.554,-286.412 272.01,-295.983 278.97,-296.727"/>
</g>
<!-- PersonSpecialization -->
<g id="node17" class="node"><title>PersonSpecialization</title>
<ellipse fill="none" stroke="black" cx="93.3381" cy="-476.403" rx="93.1765" ry="48.1667"/>
<text text-anchor="middle" x="93.3381" y="-495.203" font-family="Times New Roman,serif" font-size="14.00">PersonSpecialization</text>
<text text-anchor="middle" x="93.3381" y="-480.203" font-family="Times New Roman,serif" font-size="14.00">details: dict</text>
<text text-anchor="middle" x="93.3381" y="-465.203" font-family="Times New Roman,serif" font-size="14.00">is_active: bool*</text>
<text text-anchor="middle" x="93.3381" y="-450.203" font-family="Times New Roman,serif" font-size="14.00">level: float?</text>
</g>
<!-- PersonSpecialization&#45;&gt;Department -->
<g id="edge22" class="edge"><title>PersonSpecialization&#45;&gt;Department</title>
<path fill="none" stroke="black" d="M70.5943,-429.713C42.1134,-365.21 4.12487,-247.722 66.3381,-179.48 106.264,-135.686 504.944,-122.421 666.69,-118.823"/>
<polygon fill="black" stroke="black" points="667.073,-122.315 676.995,-118.599 666.922,-115.317 667.073,-122.315"/>
</g>
<!-- PersonSpecialization&#45;&gt;Person -->
<g id="edge23" class="edge"><title>PersonSpecialization&#45;&gt;Person</title>
<path fill="none" stroke="black" d="M126.62,-431.328C144.617,-410.809 168.617,-388.14 195.338,-375.286 315.162,-317.648 369.701,-390.67 492.338,-339.286 502.349,-335.092 512.181,-329.58 521.531,-323.414"/>
<polygon fill="black" stroke="black" points="523.732,-326.148 529.974,-317.588 519.756,-320.387 523.732,-326.148"/>
</g>
<!-- Specialization -->
<g id="node20" class="node"><title>Specialization</title>
<ellipse fill="none" stroke="black" cx="141.338" cy="-259.383" rx="65.5227" ry="37.4533"/>
<text text-anchor="middle" x="141.338" y="-270.683" font-family="Times New Roman,serif" font-size="14.00">Specialization</text>
<text text-anchor="middle" x="141.338" y="-255.683" font-family="Times New Roman,serif" font-size="14.00">detail: char</text>
<text text-anchor="middle" x="141.338" y="-240.683" font-family="Times New Roman,serif" font-size="14.00">type: char*</text>
</g>
<!-- PersonSpecialization&#45;&gt;Specialization -->
<g id="edge24" class="edge"><title>PersonSpecialization&#45;&gt;Specialization</title>
<path fill="none" stroke="black" d="M103.813,-428.481C111.881,-392.338 122.978,-342.629 131.01,-306.65"/>
<polygon fill="black" stroke="black" points="134.426,-307.411 133.189,-296.889 127.594,-305.886 134.426,-307.411"/>
</g>
<!-- SSReview -->
<g id="node18" class="node"><title>SSReview</title>
<ellipse fill="none" stroke="black" cx="341.338" cy="-650.996" rx="77.5641" ry="37.4533"/>
<text text-anchor="middle" x="341.338" y="-662.296" font-family="Times New Roman,serif" font-size="14.00">SSReview</text>
<text text-anchor="middle" x="341.338" y="-647.296" font-family="Times New Roman,serif" font-size="14.00">description: char</text>
<text text-anchor="middle" x="341.338" y="-632.296" font-family="Times New Roman,serif" font-size="14.00">value: float</text>
</g>
<!-- SSReview&#45;&gt;Person -->
<g id="edge25" class="edge"><title>SSReview&#45;&gt;Person</title>
<path fill="none" stroke="black" d="M346.215,-613.436C355.92,-542.884 378.031,-393.292 393.338,-375.286 423.662,-339.615 451.496,-362.177 492.338,-339.286 501.586,-334.103 510.863,-328.072 519.831,-321.697"/>
<polygon fill="black" stroke="black" points="521.954,-324.481 527.97,-315.76 517.828,-318.826 521.954,-324.481"/>
</g>
<!-- SSReview&#45;&gt;PersonSS -->
<g id="edge26" class="edge"><title>SSReview&#45;&gt;PersonSS</title>
<path fill="none" stroke="black" d="M323.726,-614.234C308.895,-584.12 287.821,-541.329 273.205,-511.65"/>
<polygon fill="black" stroke="black" points="276.26,-509.932 268.702,-502.508 269.98,-513.025 276.26,-509.932"/>
</g>
<!-- SpecializationReview -->
<g id="node21" class="node"><title>SpecializationReview</title>
<ellipse fill="none" stroke="black" cx="131.338" cy="-650.996" rx="94.5053" ry="37.4533"/>
<text text-anchor="middle" x="131.338" y="-662.296" font-family="Times New Roman,serif" font-size="14.00">SpecializationReview</text>
<text text-anchor="middle" x="131.338" y="-647.296" font-family="Times New Roman,serif" font-size="14.00">description: char</text>
<text text-anchor="middle" x="131.338" y="-632.296" font-family="Times New Roman,serif" font-size="14.00">value: float</text>
</g>
<!-- SpecializationReview&#45;&gt;Person -->
<g id="edge27" class="edge"><title>SpecializationReview&#45;&gt;Person</title>
<path fill="none" stroke="black" d="M207.85,-628.6C252.452,-614.578 302.729,-595.567 317.338,-577.519 374.637,-506.734 288.788,-442.408 350.338,-375.286 394.342,-327.3 434.016,-368.226 492.338,-339.286 501.91,-334.537 511.417,-328.746 520.538,-322.48"/>
<polygon fill="black" stroke="black" points="522.675,-325.255 528.797,-316.608 518.619,-319.55 522.675,-325.255"/>
</g>
<!-- SpecializationReview&#45;&gt;PersonSpecialization -->
<g id="edge28" class="edge"><title>SpecializationReview&#45;&gt;PersonSpecialization</title>
<path fill="none" stroke="black" d="M123.279,-613.393C118.24,-590.506 111.644,-560.545 105.925,-534.571"/>
<polygon fill="black" stroke="black" points="109.268,-533.478 103.7,-524.465 102.432,-534.983 109.268,-533.478"/>
</g>
<!-- Survey -->
<g id="node22" class="node"><title>Survey</title>
<ellipse fill="none" stroke="black" cx="1235.34" cy="-476.403" rx="96.7474" ry="48.1667"/>
<text text-anchor="middle" x="1235.34" y="-495.203" font-family="Times New Roman,serif" font-size="14.00">Survey</text>
<text text-anchor="middle" x="1235.34" y="-480.203" font-family="Times New Roman,serif" font-size="14.00">description: char*</text>
<text text-anchor="middle" x="1235.34" y="-465.203" font-family="Times New Roman,serif" font-size="14.00">survey_options: dict*</text>
<text text-anchor="middle" x="1235.34" y="-450.203" font-family="Times New Roman,serif" font-size="14.00">survey_result: dict</text>
</g>
<!-- Survey&#45;&gt;Group -->
<g id="edge29" class="edge"><title>Survey&#45;&gt;Group</title>
<path fill="none" stroke="black" d="M1241.26,-428.216C1246.25,-388.498 1253.28,-332.539 1257.82,-296.362"/>
<polygon fill="black" stroke="black" points="1261.32,-296.62 1259.09,-286.262 1254.37,-295.748 1261.32,-296.62"/>
</g>
<!-- SurveyResponse -->
<g id="node23" class="node"><title>SurveyResponse</title>
<ellipse fill="none" stroke="black" cx="854.338" cy="-650.996" rx="96.7474" ry="26.7407"/>
<text text-anchor="middle" x="854.338" y="-654.796" font-family="Times New Roman,serif" font-size="14.00">SurveyResponse</text>
<text text-anchor="middle" x="854.338" y="-639.796" font-family="Times New Roman,serif" font-size="14.00">chosen_option: char*</text>
</g>
<!-- SurveyResponse&#45;&gt;Person -->
<g id="edge30" class="edge"><title>SurveyResponse&#45;&gt;Person</title>
<path fill="none" stroke="black" d="M770.552,-637.464C703.684,-625.563 617.773,-605.347 596.338,-577.519 569.834,-543.11 574.096,-430.682 581.271,-349.456"/>
<polygon fill="black" stroke="black" points="584.782,-349.49 582.205,-339.213 577.811,-348.854 584.782,-349.49"/>
</g>
<!-- SurveyResponse&#45;&gt;Survey -->
<g id="edge31" class="edge"><title>SurveyResponse&#45;&gt;Survey</title>
<path fill="none" stroke="black" d="M930.71,-634.309C999.705,-619.341 1095.46,-596.347 1129.34,-577.519 1152.09,-564.876 1173.66,-546.24 1191.33,-528.464"/>
<polygon fill="black" stroke="black" points="1194.2,-530.531 1198.66,-520.919 1189.18,-525.654 1194.2,-530.531"/>
</g>
<!-- TestResult -->
<g id="node24" class="node"><title>TestResult</title>
<ellipse fill="none" stroke="black" cx="1108.34" cy="-650.996" rx="70.922" ry="26.7407"/>
<text text-anchor="middle" x="1108.34" y="-654.796" font-family="Times New Roman,serif" font-size="14.00">TestResult</text>
<text text-anchor="middle" x="1108.34" y="-639.796" font-family="Times New Roman,serif" font-size="14.00">result_data: list</text>
</g>
<!-- TestResult&#45;&gt;GroupTest -->
<g id="edge33" class="edge"><title>TestResult&#45;&gt;GroupTest</title>
<path fill="none" stroke="black" d="M1161.07,-632.931C1180.33,-626.749 1202.3,-619.756 1222.34,-613.519 1275.1,-597.099 1297.28,-610.866 1341.34,-577.519 1360.37,-563.117 1375.27,-541.288 1385.88,-521.685"/>
<polygon fill="black" stroke="black" points="1389.11,-523.066 1390.6,-512.577 1382.89,-519.844 1389.11,-523.066"/>
</g>
<!-- TestResult&#45;&gt;Person -->
<g id="edge32" class="edge"><title>TestResult&#45;&gt;Person</title>
<path fill="none" stroke="black" d="M1052.49,-634.364C1024.93,-627.13 991.088,-618.955 960.338,-613.519 887.479,-600.637 681.941,-629.551 629.338,-577.519 613.276,-561.631 602.264,-437.45 596.382,-349.293"/>
<polygon fill="black" stroke="black" points="599.872,-349.019 595.725,-339.269 592.887,-349.477 599.872,-349.019"/>
</g>
</g>
</svg>
