<?xml version="1.0" encoding="UTF-8" standalone="no"?>
<!DOCTYPE svg PUBLIC "-//W3C//DTD SVG 1.1//EN"
 "http://www.w3.org/Graphics/SVG/1.1/DTD/svg11.dtd">
<!-- Generated by graphviz version 2.38.0 (20140413.2041)
 -->
<!-- Title: %3 Pages: 1 -->
<svg width="1562pt" height="633pt"
 viewBox="0.00 0.00 1562.48 632.83" xmlns="http://www.w3.org/2000/svg" xmlns:xlink="http://www.w3.org/1999/xlink">
<g id="graph0" class="graph" transform="scale(1 1) rotate(0) translate(4 628.833)">
<title>%3</title>
<polygon fill="white" stroke="none" points="-4,4 -4,-628.833 1558.48,-628.833 1558.48,4 -4,4"/>
<!-- AuthInfo -->
<g id="node1" class="node"><title>AuthInfo</title>
<ellipse fill="none" stroke="black" cx="685.782" cy="-433.976" rx="75.8212" ry="79.8062"/>
<text text-anchor="middle" x="685.782" y="-475.276" font-family="Times New Roman,serif" font-size="14.00">AuthInfo</text>
<text text-anchor="middle" x="685.782" y="-460.276" font-family="Times New Roman,serif" font-size="14.00">attempts: int</text>
<text text-anchor="middle" x="685.782" y="-445.276" font-family="Times New Roman,serif" font-size="14.00">auth_code: char</text>
<text text-anchor="middle" x="685.782" y="-430.276" font-family="Times New Roman,serif" font-size="14.00">password: char</text>
<text text-anchor="middle" x="685.782" y="-415.276" font-family="Times New Roman,serif" font-size="14.00">permissions: int</text>
<text text-anchor="middle" x="685.782" y="-400.276" font-family="Times New Roman,serif" font-size="14.00">phone_no: char</text>
<text text-anchor="middle" x="685.782" y="-385.276" font-family="Times New Roman,serif" font-size="14.00">session_id: char</text>
</g>
<!-- Person -->
<g id="node14" class="node"><title>Person</title>
<ellipse fill="none" stroke="black" cx="622.782" cy="-248.777" rx="89.191" ry="69.0935"/>
<text text-anchor="middle" x="622.782" y="-282.577" font-family="Times New Roman,serif" font-size="14.00">Person</text>
<text text-anchor="middle" x="622.782" y="-267.577" font-family="Times New Roman,serif" font-size="14.00">birth_date: datetime</text>
<text text-anchor="middle" x="622.782" y="-252.577" font-family="Times New Roman,serif" font-size="14.00">first_name: char</text>
<text text-anchor="middle" x="622.782" y="-237.577" font-family="Times New Roman,serif" font-size="14.00">middle_name: char</text>
<text text-anchor="middle" x="622.782" y="-222.577" font-family="Times New Roman,serif" font-size="14.00">phone_no: char</text>
<text text-anchor="middle" x="622.782" y="-207.577" font-family="Times New Roman,serif" font-size="14.00">surname: char</text>
</g>
<!-- AuthInfo&#45;&gt;Person -->
<g id="edge1" class="edge"><title>AuthInfo&#45;&gt;Person</title>
<path fill="none" stroke="black" d="M660.248,-358.726C656.476,-347.756 652.585,-336.442 648.802,-325.443"/>
<polygon fill="black" stroke="black" points="652.074,-324.194 645.512,-315.876 645.455,-326.471 652.074,-324.194"/>
</g>
<!-- Department -->
<g id="node2" class="node"><title>Department</title>
<ellipse fill="none" stroke="black" cx="777.782" cy="-116.61" rx="57.0522" ry="26.7407"/>
<text text-anchor="middle" x="777.782" y="-120.41" font-family="Times New Roman,serif" font-size="14.00">Department</text>
<text text-anchor="middle" x="777.782" y="-105.41" font-family="Times New Roman,serif" font-size="14.00">name: char</text>
</g>
<!-- Organization -->
<g id="node13" class="node"><title>Organization</title>
<ellipse fill="none" stroke="black" cx="777.782" cy="-26.8701" rx="61.5366" ry="26.7407"/>
<text text-anchor="middle" x="777.782" y="-30.6701" font-family="Times New Roman,serif" font-size="14.00">Organization</text>
<text text-anchor="middle" x="777.782" y="-15.6701" font-family="Times New Roman,serif" font-size="14.00">name: char</text>
</g>
<!-- Department&#45;&gt;Organization -->
<g id="edge2" class="edge"><title>Department&#45;&gt;Organization</title>
<path fill="none" stroke="black" d="M777.782,-89.2852C777.782,-81.3185 777.782,-72.4275 777.782,-63.9391"/>
<polygon fill="black" stroke="black" points="781.282,-63.874 777.782,-53.874 774.282,-63.8741 781.282,-63.874"/>
</g>
<!-- Group -->
<g id="node3" class="node"><title>Group</title>
<ellipse fill="none" stroke="black" cx="1130.78" cy="-248.777" rx="54.3945" ry="26.7407"/>
<text text-anchor="middle" x="1130.78" y="-252.577" font-family="Times New Roman,serif" font-size="14.00">Group</text>
<text text-anchor="middle" x="1130.78" y="-237.577" font-family="Times New Roman,serif" font-size="14.00">name: char</text>
</g>
<!-- Group&#45;&gt;Department -->
<g id="edge3" class="edge"><title>Group&#45;&gt;Department</title>
<path fill="none" stroke="black" d="M1087.85,-231.946C1023.36,-208.165 901.572,-163.257 831.353,-137.364"/>
<polygon fill="black" stroke="black" points="832.392,-134.017 821.798,-133.841 829.97,-140.585 832.392,-134.017"/>
</g>
<!-- GroupRole -->
<g id="node8" class="node"><title>GroupRole</title>
<ellipse fill="none" stroke="black" cx="1296.78" cy="-116.61" rx="56.6372" ry="26.7407"/>
<text text-anchor="middle" x="1296.78" y="-120.41" font-family="Times New Roman,serif" font-size="14.00">GroupRole</text>
<text text-anchor="middle" x="1296.78" y="-105.41" font-family="Times New Roman,serif" font-size="14.00">name: char</text>
</g>
<!-- Group&#45;&gt;GroupRole -->
<g id="edge4" class="edge"><title>Group&#45;&gt;GroupRole</title>
<path fill="none" stroke="black" d="M1158.94,-225.696C1186.76,-203.883 1229.45,-170.406 1259.95,-146.492"/>
<polygon fill="black" stroke="black" points="1262.5,-148.943 1268.21,-140.018 1258.18,-143.434 1262.5,-148.943"/>
</g>
<!-- GroupMember -->
<g id="node4" class="node"><title>GroupMember</title>
<ellipse fill="none" stroke="black" cx="1463.78" cy="-433.976" rx="64.9885" ry="18"/>
<text text-anchor="middle" x="1463.78" y="-430.276" font-family="Times New Roman,serif" font-size="14.00">GroupMember</text>
</g>
<!-- GroupMember&#45;&gt;Group -->
<g id="edge5" class="edge"><title>GroupMember&#45;&gt;Group</title>
<path fill="none" stroke="black" d="M1451.08,-416.042C1436.82,-398.166 1412.08,-370.367 1384.78,-354.073 1336.97,-325.535 1316.46,-338.799 1264.78,-318.073 1233.67,-305.597 1200.07,-288.461 1174.3,-274.475"/>
<polygon fill="black" stroke="black" points="1175.98,-271.404 1165.52,-269.672 1172.61,-277.544 1175.98,-271.404"/>
</g>
<!-- GroupPermission -->
<g id="node6" class="node"><title>GroupPermission</title>
<ellipse fill="none" stroke="black" cx="1354.78" cy="-248.777" rx="81.135" ry="26.7407"/>
<text text-anchor="middle" x="1354.78" y="-252.577" font-family="Times New Roman,serif" font-size="14.00">GroupPermission</text>
<text text-anchor="middle" x="1354.78" y="-237.577" font-family="Times New Roman,serif" font-size="14.00">name: char</text>
</g>
<!-- GroupMember&#45;&gt;GroupPermission -->
<g id="edge6" class="edge"><title>GroupMember&#45;&gt;GroupPermission</title>
<path fill="none" stroke="black" d="M1453.72,-416.07C1435.96,-386.22 1398.72,-323.626 1375.34,-284.321"/>
<polygon fill="black" stroke="black" points="1378.12,-282.15 1370,-275.346 1372.1,-285.73 1378.12,-282.15"/>
</g>
<!-- GroupMember&#45;&gt;GroupRole -->
<g id="edge8" class="edge"><title>GroupMember&#45;&gt;GroupRole</title>
<path fill="none" stroke="black" d="M1468.05,-415.862C1477.96,-371.85 1497.83,-253.039 1444.78,-179.48 1425.01,-152.067 1390.72,-136.74 1360.12,-128.202"/>
<polygon fill="black" stroke="black" points="1360.9,-124.787 1350.34,-125.661 1359.14,-131.563 1360.9,-124.787"/>
</g>
<!-- GroupMember&#45;&gt;Person -->
<g id="edge7" class="edge"><title>GroupMember&#45;&gt;Person</title>
<path fill="none" stroke="black" d="M1452.35,-416.092C1438.68,-397.419 1413.95,-368.123 1384.78,-354.073 1257.04,-292.534 1208.33,-336.832 1067.78,-318.073 947.741,-302.052 809.997,-280.406 719.952,-265.813"/>
<polygon fill="black" stroke="black" points="720.461,-262.35 710.029,-264.202 719.339,-269.259 720.461,-262.35"/>
</g>
<!-- GroupMemberReview -->
<g id="node5" class="node"><title>GroupMemberReview</title>
<ellipse fill="none" stroke="black" cx="1454.78" cy="-587.356" rx="99.9045" ry="37.4533"/>
<text text-anchor="middle" x="1454.78" y="-598.656" font-family="Times New Roman,serif" font-size="14.00">GroupMemberReview</text>
<text text-anchor="middle" x="1454.78" y="-583.656" font-family="Times New Roman,serif" font-size="14.00">description: char</text>
<text text-anchor="middle" x="1454.78" y="-568.656" font-family="Times New Roman,serif" font-size="14.00">value: float</text>
</g>
<!-- GroupMemberReview&#45;&gt;GroupMember -->
<g id="edge10" class="edge"><title>GroupMemberReview&#45;&gt;GroupMember</title>
<path fill="none" stroke="black" d="M1456.96,-549.711C1458.56,-522.728 1460.71,-486.629 1462.16,-462.182"/>
<polygon fill="black" stroke="black" points="1465.66,-462.352 1462.76,-452.162 1458.67,-461.936 1465.66,-462.352"/>
</g>
<!-- GroupMemberReview&#45;&gt;Person -->
<g id="edge9" class="edge"><title>GroupMemberReview&#45;&gt;Person</title>
<path fill="none" stroke="black" d="M1417.81,-552.194C1407.42,-540.89 1396.99,-527.655 1389.78,-513.879 1355.92,-449.2 1406.1,-402.851 1351.78,-354.073 1304.45,-311.568 1130.78,-326.899 1067.78,-318.073 947.848,-301.271 810.081,-279.79 720.001,-265.448"/>
<polygon fill="black" stroke="black" points="720.502,-261.983 710.075,-263.866 719.4,-268.896 720.502,-261.983"/>
</g>
<!-- GroupReview -->
<g id="node7" class="node"><title>GroupReview</title>
<ellipse fill="none" stroke="black" cx="1061.78" cy="-433.976" rx="77.5641" ry="37.4533"/>
<text text-anchor="middle" x="1061.78" y="-445.276" font-family="Times New Roman,serif" font-size="14.00">GroupReview</text>
<text text-anchor="middle" x="1061.78" y="-430.276" font-family="Times New Roman,serif" font-size="14.00">description: char</text>
<text text-anchor="middle" x="1061.78" y="-415.276" font-family="Times New Roman,serif" font-size="14.00">value: float</text>
</g>
<!-- GroupReview&#45;&gt;Group -->
<g id="edge12" class="edge"><title>GroupReview&#45;&gt;Group</title>
<path fill="none" stroke="black" d="M1075.41,-396.782C1087.66,-364.273 1105.52,-316.852 1117.62,-284.73"/>
<polygon fill="black" stroke="black" points="1120.92,-285.878 1121.17,-275.286 1114.37,-283.411 1120.92,-285.878"/>
</g>
<!-- GroupReview&#45;&gt;Person -->
<g id="edge11" class="edge"><title>GroupReview&#45;&gt;Person</title>
<path fill="none" stroke="black" d="M1029.81,-399.693C1013.17,-383.982 991.751,-366.088 969.782,-354.073 890.714,-310.832 791.471,-283.326 719.396,-267.484"/>
<polygon fill="black" stroke="black" points="719.925,-264.018 709.411,-265.326 718.446,-270.86 719.925,-264.018"/>
</g>
<!-- GroupTest -->
<g id="node9" class="node"><title>GroupTest</title>
<ellipse fill="none" stroke="black" cx="834.782" cy="-433.976" rx="55.3091" ry="37.4533"/>
<text text-anchor="middle" x="834.782" y="-445.276" font-family="Times New Roman,serif" font-size="14.00">GroupTest</text>
<text text-anchor="middle" x="834.782" y="-430.276" font-family="Times New Roman,serif" font-size="14.00">info: char</text>
<text text-anchor="middle" x="834.782" y="-415.276" font-family="Times New Roman,serif" font-size="14.00">name: char</text>
</g>
<!-- GroupTest&#45;&gt;Group -->
<g id="edge13" class="edge"><title>GroupTest&#45;&gt;Group</title>
<path fill="none" stroke="black" d="M875.01,-408.078C930.976,-373.44 1031.85,-311.008 1088.76,-275.786"/>
<polygon fill="black" stroke="black" points="1090.84,-278.614 1097.5,-270.375 1087.15,-272.662 1090.84,-278.614"/>
</g>
<!-- GroupTestReview -->
<g id="node10" class="node"><title>GroupTestReview</title>
<ellipse fill="none" stroke="black" cx="841.782" cy="-587.356" rx="84.2917" ry="37.4533"/>
<text text-anchor="middle" x="841.782" y="-598.656" font-family="Times New Roman,serif" font-size="14.00">GroupTestReview</text>
<text text-anchor="middle" x="841.782" y="-583.656" font-family="Times New Roman,serif" font-size="14.00">description: char</text>
<text text-anchor="middle" x="841.782" y="-568.656" font-family="Times New Roman,serif" font-size="14.00">value: float</text>
</g>
<!-- GroupTestReview&#45;&gt;GroupTest -->
<g id="edge15" class="edge"><title>GroupTestReview&#45;&gt;GroupTest</title>
<path fill="none" stroke="black" d="M840.087,-549.711C839.141,-529.24 837.951,-503.522 836.939,-481.625"/>
<polygon fill="black" stroke="black" points="840.431,-481.373 836.473,-471.546 833.439,-481.697 840.431,-481.373"/>
</g>
<!-- GroupTestReview&#45;&gt;Person -->
<g id="edge14" class="edge"><title>GroupTestReview&#45;&gt;Person</title>
<path fill="none" stroke="black" d="M875.758,-552.735C885.058,-541.36 893.912,-527.948 898.782,-513.879 922.013,-446.761 939.163,-412.501 898.782,-354.073 859.124,-296.693 783.567,-270.846 721.521,-259.222"/>
<polygon fill="black" stroke="black" points="721.75,-255.708 711.292,-257.41 720.528,-262.601 721.75,-255.708"/>
</g>
<!-- HSReview -->
<g id="node11" class="node"><title>HSReview</title>
<ellipse fill="none" stroke="black" cx="77.7817" cy="-587.356" rx="77.5641" ry="37.4533"/>
<text text-anchor="middle" x="77.7817" y="-598.656" font-family="Times New Roman,serif" font-size="14.00">HSReview</text>
<text text-anchor="middle" x="77.7817" y="-583.656" font-family="Times New Roman,serif" font-size="14.00">description: char</text>
<text text-anchor="middle" x="77.7817" y="-568.656" font-family="Times New Roman,serif" font-size="14.00">value: float</text>
</g>
<!-- HSReview&#45;&gt;Person -->
<g id="edge16" class="edge"><title>HSReview&#45;&gt;Person</title>
<path fill="none" stroke="black" d="M136.877,-562.771C149.298,-558.199 162.392,-553.659 174.782,-549.879 241.184,-529.62 278.406,-563.674 326.782,-513.879 377.317,-461.861 308.82,-405.673 359.782,-354.073 412.22,-300.978 455.342,-347.818 523.782,-318.073 533.142,-314.005 542.537,-309.001 551.612,-303.566"/>
<polygon fill="black" stroke="black" points="553.549,-306.483 560.204,-298.239 549.86,-300.534 553.549,-306.483"/>
</g>
<!-- PersonHS -->
<g id="node15" class="node"><title>PersonHS</title>
<ellipse fill="none" stroke="black" cx="60.7817" cy="-433.976" rx="52.1524" ry="26.7407"/>
<text text-anchor="middle" x="60.7817" y="-437.776" font-family="Times New Roman,serif" font-size="14.00">PersonHS</text>
<text text-anchor="middle" x="60.7817" y="-422.776" font-family="Times New Roman,serif" font-size="14.00">level: float</text>
</g>
<!-- HSReview&#45;&gt;PersonHS -->
<g id="edge17" class="edge"><title>HSReview&#45;&gt;PersonHS</title>
<path fill="none" stroke="black" d="M73.6665,-549.711C70.9787,-525.777 67.4854,-494.67 64.8144,-470.885"/>
<polygon fill="black" stroke="black" points="68.2821,-470.401 63.6878,-460.854 61.3258,-471.182 68.2821,-470.401"/>
</g>
<!-- HardSkill -->
<g id="node12" class="node"><title>HardSkill</title>
<ellipse fill="none" stroke="black" cx="60.7817" cy="-248.777" rx="54.3945" ry="26.7407"/>
<text text-anchor="middle" x="60.7817" y="-252.577" font-family="Times New Roman,serif" font-size="14.00">HardSkill</text>
<text text-anchor="middle" x="60.7817" y="-237.577" font-family="Times New Roman,serif" font-size="14.00">name: char</text>
</g>
<!-- PersonHS&#45;&gt;HardSkill -->
<g id="edge18" class="edge"><title>PersonHS&#45;&gt;HardSkill</title>
<path fill="none" stroke="black" d="M60.7817,-406.728C60.7817,-375.077 60.7817,-321.705 60.7817,-286.112"/>
<polygon fill="black" stroke="black" points="64.2818,-285.68 60.7817,-275.68 57.2818,-285.68 64.2818,-285.68"/>
</g>
<!-- PersonHS&#45;&gt;Person -->
<g id="edge19" class="edge"><title>PersonHS&#45;&gt;Person</title>
<path fill="none" stroke="black" d="M73.338,-407.754C83.8709,-389.508 100.732,-366.038 122.782,-354.073 280.058,-268.731 355.491,-378.878 523.782,-318.073 533.529,-314.551 543.219,-309.827 552.506,-304.5"/>
<polygon fill="black" stroke="black" points="554.51,-307.38 561.277,-299.228 550.903,-301.381 554.51,-307.38"/>
</g>
<!-- PersonSS -->
<g id="node16" class="node"><title>PersonSS</title>
<ellipse fill="none" stroke="black" cx="463.782" cy="-433.976" rx="51.7379" ry="26.7407"/>
<text text-anchor="middle" x="463.782" y="-437.776" font-family="Times New Roman,serif" font-size="14.00">PersonSS</text>
<text text-anchor="middle" x="463.782" y="-422.776" font-family="Times New Roman,serif" font-size="14.00">level: float</text>
</g>
<!-- PersonSS&#45;&gt;Person -->
<g id="edge20" class="edge"><title>PersonSS&#45;&gt;Person</title>
<path fill="none" stroke="black" d="M483.515,-408.986C496.53,-393.264 514.023,-372.319 529.782,-354.073 541.116,-340.951 553.37,-327.026 565.147,-313.77"/>
<polygon fill="black" stroke="black" points="567.982,-315.85 572.016,-306.053 562.753,-311.196 567.982,-315.85"/>
</g>
<!-- SoftSkill -->
<g id="node19" class="node"><title>SoftSkill</title>
<ellipse fill="none" stroke="black" cx="460.782" cy="-248.777" rx="54.3945" ry="26.7407"/>
<text text-anchor="middle" x="460.782" y="-252.577" font-family="Times New Roman,serif" font-size="14.00">SoftSkill</text>
<text text-anchor="middle" x="460.782" y="-237.577" font-family="Times New Roman,serif" font-size="14.00">name: char</text>
</g>
<!-- PersonSS&#45;&gt;SoftSkill -->
<g id="edge21" class="edge"><title>PersonSS&#45;&gt;SoftSkill</title>
<path fill="none" stroke="black" d="M463.352,-406.728C462.834,-375.077 461.96,-321.705 461.377,-286.112"/>
<polygon fill="black" stroke="black" points="464.869,-285.621 461.206,-275.68 457.87,-285.736 464.869,-285.621"/>
</g>
<!-- PersonSpecialization -->
<g id="node17" class="node"><title>PersonSpecialization</title>
<ellipse fill="none" stroke="black" cx="224.782" cy="-433.976" rx="93.1765" ry="37.4533"/>
<text text-anchor="middle" x="224.782" y="-445.276" font-family="Times New Roman,serif" font-size="14.00">PersonSpecialization</text>
<text text-anchor="middle" x="224.782" y="-430.276" font-family="Times New Roman,serif" font-size="14.00">details: dict</text>
<text text-anchor="middle" x="224.782" y="-415.276" font-family="Times New Roman,serif" font-size="14.00">level: float</text>
</g>
<!-- PersonSpecialization&#45;&gt;Department -->
<g id="edge22" class="edge"><title>PersonSpecialization&#45;&gt;Department</title>
<path fill="none" stroke="black" d="M214.785,-396.653C202.092,-341.669 187.995,-237.575 243.782,-179.48 275.597,-146.348 574.288,-127.585 710.57,-120.685"/>
<polygon fill="black" stroke="black" points="711.07,-124.164 720.883,-120.17 710.72,-117.173 711.07,-124.164"/>
</g>
<!-- PersonSpecialization&#45;&gt;Person -->
<g id="edge23" class="edge"><title>PersonSpecialization&#45;&gt;Person</title>
<path fill="none" stroke="black" d="M261.787,-399.187C281.286,-383.151 306.384,-365.123 331.782,-354.073 411.394,-319.436 443.634,-351.452 523.782,-318.073 533.204,-314.149 542.637,-309.234 551.733,-303.849"/>
<polygon fill="black" stroke="black" points="553.653,-306.777 560.34,-298.559 549.988,-300.814 553.653,-306.777"/>
</g>
<!-- Specialization -->
<g id="node20" class="node"><title>Specialization</title>
<ellipse fill="none" stroke="black" cx="318.782" cy="-248.777" rx="65.5227" ry="37.4533"/>
<text text-anchor="middle" x="318.782" y="-260.077" font-family="Times New Roman,serif" font-size="14.00">Specialization</text>
<text text-anchor="middle" x="318.782" y="-245.077" font-family="Times New Roman,serif" font-size="14.00">detail: char</text>
<text text-anchor="middle" x="318.782" y="-230.077" font-family="Times New Roman,serif" font-size="14.00">type: char</text>
</g>
<!-- PersonSpecialization&#45;&gt;Specialization -->
<g id="edge24" class="edge"><title>PersonSpecialization&#45;&gt;Specialization</title>
<path fill="none" stroke="black" d="M243.129,-397.219C258.253,-367.744 279.777,-325.795 296.002,-294.173"/>
<polygon fill="black" stroke="black" points="299.189,-295.627 300.641,-285.132 292.961,-292.432 299.189,-295.627"/>
</g>
<!-- SSReview -->
<g id="node18" class="node"><title>SSReview</title>
<ellipse fill="none" stroke="black" cx="474.782" cy="-587.356" rx="77.5641" ry="37.4533"/>
<text text-anchor="middle" x="474.782" y="-598.656" font-family="Times New Roman,serif" font-size="14.00">SSReview</text>
<text text-anchor="middle" x="474.782" y="-583.656" font-family="Times New Roman,serif" font-size="14.00">description: char</text>
<text text-anchor="middle" x="474.782" y="-568.656" font-family="Times New Roman,serif" font-size="14.00">value: float</text>
</g>
<!-- SSReview&#45;&gt;Person -->
<g id="edge25" class="edge"><title>SSReview&#45;&gt;Person</title>
<path fill="none" stroke="black" d="M501.026,-552.068C509.286,-540.346 518.01,-526.899 524.782,-513.879 533.839,-496.465 570.077,-397.027 595.843,-325.291"/>
<polygon fill="black" stroke="black" points="599.164,-326.401 599.247,-315.806 592.575,-324.036 599.164,-326.401"/>
</g>
<!-- SSReview&#45;&gt;PersonSS -->
<g id="edge26" class="edge"><title>SSReview&#45;&gt;PersonSS</title>
<path fill="none" stroke="black" d="M472.119,-549.711C470.38,-525.777 468.119,-494.67 466.391,-470.885"/>
<polygon fill="black" stroke="black" points="469.878,-470.574 465.662,-460.854 462.896,-471.082 469.878,-470.574"/>
</g>
<!-- SpecializationReview -->
<g id="node21" class="node"><title>SpecializationReview</title>
<ellipse fill="none" stroke="black" cx="278.782" cy="-587.356" rx="94.5053" ry="37.4533"/>
<text text-anchor="middle" x="278.782" y="-598.656" font-family="Times New Roman,serif" font-size="14.00">SpecializationReview</text>
<text text-anchor="middle" x="278.782" y="-583.656" font-family="Times New Roman,serif" font-size="14.00">description: char</text>
<text text-anchor="middle" x="278.782" y="-568.656" font-family="Times New Roman,serif" font-size="14.00">value: float</text>
</g>
<!-- SpecializationReview&#45;&gt;Person -->
<g id="edge27" class="edge"><title>SpecializationReview&#45;&gt;Person</title>
<path fill="none" stroke="black" d="M323.867,-554.165C337.091,-542.768 350.482,-528.984 359.782,-513.879 398.343,-451.247 351.462,-406.762 402.782,-354.073 441.93,-313.88 473.176,-342.303 523.782,-318.073 532.916,-313.7 542.142,-308.532 551.098,-303.028"/>
<polygon fill="black" stroke="black" points="553.006,-305.963 559.59,-297.663 549.267,-300.046 553.006,-305.963"/>
</g>
<!-- SpecializationReview&#45;&gt;PersonSpecialization -->
<g id="edge28" class="edge"><title>SpecializationReview&#45;&gt;PersonSpecialization</title>
<path fill="none" stroke="black" d="M265.847,-550.097C258.427,-529.296 249.041,-502.982 241.115,-480.765"/>
<polygon fill="black" stroke="black" points="244.36,-479.444 237.704,-471.202 237.767,-481.796 244.36,-479.444"/>
</g>
<!-- Survey -->
<g id="node22" class="node"><title>Survey</title>
<ellipse fill="none" stroke="black" cx="1249.78" cy="-433.976" rx="92.7622" ry="37.4533"/>
<text text-anchor="middle" x="1249.78" y="-445.276" font-family="Times New Roman,serif" font-size="14.00">Survey</text>
<text text-anchor="middle" x="1249.78" y="-430.276" font-family="Times New Roman,serif" font-size="14.00">description: char</text>
<text text-anchor="middle" x="1249.78" y="-415.276" font-family="Times New Roman,serif" font-size="14.00">survey_options: dict</text>
</g>
<!-- Survey&#45;&gt;Group -->
<g id="edge29" class="edge"><title>Survey&#45;&gt;Group</title>
<path fill="none" stroke="black" d="M1226.84,-397.654C1205.42,-364.674 1173.67,-315.805 1152.62,-283.39"/>
<polygon fill="black" stroke="black" points="1155.36,-281.19 1146.98,-274.71 1149.49,-285.003 1155.36,-281.19"/>
</g>
<!-- SurveyResponse -->
<g id="node23" class="node"><title>SurveyResponse</title>
<ellipse fill="none" stroke="black" cx="1044.78" cy="-587.356" rx="92.7622" ry="26.7407"/>
<text text-anchor="middle" x="1044.78" y="-591.156" font-family="Times New Roman,serif" font-size="14.00">SurveyResponse</text>
<text text-anchor="middle" x="1044.78" y="-576.156" font-family="Times New Roman,serif" font-size="14.00">chosen_option: char</text>
</g>
<!-- SurveyResponse&#45;&gt;Person -->
<g id="edge30" class="edge"><title>SurveyResponse&#45;&gt;Person</title>
<path fill="none" stroke="black" d="M1015.18,-561.709C1001.22,-548.733 985.355,-531.811 974.782,-513.879 937.049,-449.887 977.412,-407.488 925.782,-354.073 872.088,-298.523 787.485,-272.549 721.307,-260.411"/>
<polygon fill="black" stroke="black" points="721.723,-256.93 711.268,-258.649 720.512,-263.825 721.723,-256.93"/>
</g>
<!-- SurveyResponse&#45;&gt;Survey -->
<g id="edge31" class="edge"><title>SurveyResponse&#45;&gt;Survey</title>
<path fill="none" stroke="black" d="M1080.26,-562.338C1100.52,-548.446 1126.3,-530.479 1148.78,-513.879 1166.01,-501.16 1184.56,-486.851 1201.01,-473.946"/>
<polygon fill="black" stroke="black" points="1203.2,-476.673 1208.89,-467.737 1198.87,-471.172 1203.2,-476.673"/>
</g>
<!-- SurveyResult -->
<g id="node24" class="node"><title>SurveyResult</title>
<ellipse fill="none" stroke="black" cx="1249.78" cy="-587.356" rx="79.3924" ry="26.7407"/>
<text text-anchor="middle" x="1249.78" y="-591.156" font-family="Times New Roman,serif" font-size="14.00">SurveyResult</text>
<text text-anchor="middle" x="1249.78" y="-576.156" font-family="Times New Roman,serif" font-size="14.00">survey_data: dict</text>
</g>
<!-- SurveyResult&#45;&gt;Survey -->
<g id="edge32" class="edge"><title>SurveyResult&#45;&gt;Survey</title>
<path fill="none" stroke="black" d="M1249.78,-560.333C1249.78,-538.861 1249.78,-507.841 1249.78,-482.031"/>
<polygon fill="black" stroke="black" points="1253.28,-481.699 1249.78,-471.699 1246.28,-481.699 1253.28,-481.699"/>
</g>
<!-- TestResult -->
<g id="node25" class="node"><title>TestResult</title>
<ellipse fill="none" stroke="black" cx="652.782" cy="-587.356" rx="70.922" ry="26.7407"/>
<text text-anchor="middle" x="652.782" y="-591.156" font-family="Times New Roman,serif" font-size="14.00">TestResult</text>
<text text-anchor="middle" x="652.782" y="-576.156" font-family="Times New Roman,serif" font-size="14.00">result_data: list</text>
</g>
<!-- TestResult&#45;&gt;GroupTest -->
<g id="edge34" class="edge"><title>TestResult&#45;&gt;GroupTest</title>
<path fill="none" stroke="black" d="M694.153,-565.49C717.917,-552.433 747.557,-534.251 770.782,-513.879 783.291,-502.907 795.271,-489.307 805.414,-476.506"/>
<polygon fill="black" stroke="black" points="808.454,-478.296 811.801,-468.244 802.916,-474.015 808.454,-478.296"/>
</g>
<!-- TestResult&#45;&gt;Person -->
<g id="edge33" class="edge"><title>TestResult&#45;&gt;Person</title>
<path fill="none" stroke="black" d="M629.165,-561.703C618.253,-548.601 606.472,-531.57 600.782,-513.879 581.154,-452.853 589.408,-380.025 601.008,-326.317"/>
<polygon fill="black" stroke="black" points="604.432,-327.042 603.207,-316.518 597.602,-325.509 604.432,-327.042"/>
</g>
</g>
</svg>
